<?xml version="1.0" encoding="utf-8" standalone="no"?>
<!DOCTYPE svg PUBLIC "-//W3C//DTD SVG 1.1//EN"
  "http://www.w3.org/Graphics/SVG/1.1/DTD/svg11.dtd">
<!-- Created with matplotlib (https://matplotlib.org/) -->
<svg height="353.440875pt" version="1.1" viewBox="0 0 371.549812 353.440875" width="371.549812pt" xmlns="http://www.w3.org/2000/svg" xmlns:xlink="http://www.w3.org/1999/xlink">
 <metadata>
  <rdf:RDF xmlns:cc="http://creativecommons.org/ns#" xmlns:dc="http://purl.org/dc/elements/1.1/" xmlns:rdf="http://www.w3.org/1999/02/22-rdf-syntax-ns#">
   <cc:Work>
    <dc:type rdf:resource="http://purl.org/dc/dcmitype/StillImage"/>
    <dc:date>2023-07-11T15:29:16.428483</dc:date>
    <dc:format>image/svg+xml</dc:format>
    <dc:creator>
     <cc:Agent>
      <dc:title>Matplotlib v3.3.2, https://matplotlib.org/</dc:title>
     </cc:Agent>
    </dc:creator>
   </cc:Work>
  </rdf:RDF>
 </metadata>
 <defs>
  <style type="text/css">*{stroke-linecap:butt;stroke-linejoin:round;}</style>
 </defs>
 <g id="figure_1">
  <g id="patch_1">
   <path d="M 0 353.440875 
L 371.549812 353.440875 
L 371.549812 0 
L 0 0 
z
" style="fill:none;"/>
  </g>
  <g id="axes_1">
   <g id="patch_2">
    <path d="M 67.481875 297.164 
L 341.414625 297.164 
L 341.414625 7.2 
L 67.481875 7.2 
z
" style="fill:#ffffff;"/>
   </g>
   <g id="PathCollection_1">
    <defs>
     <path d="M 0 5 
C 1.326016 5 2.597899 4.473168 3.535534 3.535534 
C 4.473168 2.597899 5 1.326016 5 0 
C 5 -1.326016 4.473168 -2.597899 3.535534 -3.535534 
C 2.597899 -4.473168 1.326016 -5 0 -5 
C -1.326016 -5 -2.597899 -4.473168 -3.535534 -3.535534 
C -4.473168 -2.597899 -5 -1.326016 -5 0 
C -5 1.326016 -4.473168 2.597899 -3.535534 3.535534 
C -2.597899 4.473168 -1.326016 5 0 5 
z
" id="m9681e8e24f" style="stroke:#da9138;stroke-opacity:0.8;"/>
    </defs>
    <g clip-path="url(#p2b659622f9)">
     <use style="fill:#da9138;fill-opacity:0.8;stroke:#da9138;stroke-opacity:0.8;" x="331.645101" xlink:href="#m9681e8e24f" y="283.983818"/>
     <use style="fill:#da9138;fill-opacity:0.8;stroke:#da9138;stroke-opacity:0.8;" x="236.055956" xlink:href="#m9681e8e24f" y="272.354246"/>
     <use style="fill:#da9138;fill-opacity:0.8;stroke:#da9138;stroke-opacity:0.8;" x="332.779797" xlink:href="#m9681e8e24f" y="249.095102"/>
     <use style="fill:#da9138;fill-opacity:0.8;stroke:#da9138;stroke-opacity:0.8;" x="332.103144" xlink:href="#m9681e8e24f" y="268.477722"/>
     <use style="fill:#da9138;fill-opacity:0.8;stroke:#da9138;stroke-opacity:0.8;" x="331.721834" xlink:href="#m9681e8e24f" y="280.107294"/>
     <use style="fill:#da9138;fill-opacity:0.8;stroke:#da9138;stroke-opacity:0.8;" x="310.964687" xlink:href="#m9681e8e24f" y="249.095102"/>
     <use style="fill:#da9138;fill-opacity:0.8;stroke:#da9138;stroke-opacity:0.8;" x="319.38095" xlink:href="#m9681e8e24f" y="280.107294"/>
     <use style="fill:#da9138;fill-opacity:0.8;stroke:#da9138;stroke-opacity:0.8;" x="332.779797" xlink:href="#m9681e8e24f" y="272.354246"/>
     <use style="fill:#da9138;fill-opacity:0.8;stroke:#da9138;stroke-opacity:0.8;" x="323.425951" xlink:href="#m9681e8e24f" y="276.23077"/>
     <use style="fill:#da9138;fill-opacity:0.8;stroke:#da9138;stroke-opacity:0.8;" x="268.055268" xlink:href="#m9681e8e24f" y="283.983818"/>
     <use style="fill:#da9138;fill-opacity:0.8;stroke:#da9138;stroke-opacity:0.8;" x="297.752279" xlink:href="#m9681e8e24f" y="249.095102"/>
     <use style="fill:#da9138;fill-opacity:0.8;stroke:#da9138;stroke-opacity:0.8;" x="290.954929" xlink:href="#m9681e8e24f" y="229.712481"/>
     <use style="fill:#da9138;fill-opacity:0.8;stroke:#da9138;stroke-opacity:0.8;" x="273.389536" xlink:href="#m9681e8e24f" y="237.465529"/>
     <use style="fill:#da9138;fill-opacity:0.8;stroke:#da9138;stroke-opacity:0.8;" x="308.039118" xlink:href="#m9681e8e24f" y="272.354246"/>
     <use style="fill:#da9138;fill-opacity:0.8;stroke:#da9138;stroke-opacity:0.8;" x="195.711508" xlink:href="#m9681e8e24f" y="241.342053"/>
     <use style="fill:#da9138;fill-opacity:0.8;stroke:#da9138;stroke-opacity:0.8;" x="226.352157" xlink:href="#m9681e8e24f" y="187.070717"/>
     <use style="fill:#da9138;fill-opacity:0.8;stroke:#da9138;stroke-opacity:0.8;" x="321.00102" xlink:href="#m9681e8e24f" y="237.465529"/>
     <use style="fill:#da9138;fill-opacity:0.8;stroke:#da9138;stroke-opacity:0.8;" x="314.233016" xlink:href="#m9681e8e24f" y="260.724674"/>
     <use style="fill:#da9138;fill-opacity:0.8;stroke:#da9138;stroke-opacity:0.8;" x="306.935852" xlink:href="#m9681e8e24f" y="218.082909"/>
     <use style="fill:#da9138;fill-opacity:0.8;stroke:#da9138;stroke-opacity:0.8;" x="168.424488" xlink:href="#m9681e8e24f" y="210.329861"/>
     <use style="fill:#da9138;fill-opacity:0.8;stroke:#da9138;stroke-opacity:0.8;" x="299.066766" xlink:href="#m9681e8e24f" y="187.070717"/>
     <use style="fill:#da9138;fill-opacity:0.8;stroke:#da9138;stroke-opacity:0.8;" x="255.247511" xlink:href="#m9681e8e24f" y="179.317668"/>
     <use style="fill:#da9138;fill-opacity:0.8;stroke:#da9138;stroke-opacity:0.8;" x="331.25904" xlink:href="#m9681e8e24f" y="245.218578"/>
     <use style="fill:#da9138;fill-opacity:0.8;stroke:#da9138;stroke-opacity:0.8;" x="287.720078" xlink:href="#m9681e8e24f" y="221.959433"/>
     <use style="fill:#da9138;fill-opacity:0.8;stroke:#da9138;stroke-opacity:0.8;" x="279.952423" xlink:href="#m9681e8e24f" y="225.835957"/>
     <use style="fill:#da9138;fill-opacity:0.8;stroke:#da9138;stroke-opacity:0.8;" x="331.912978" xlink:href="#m9681e8e24f" y="229.712481"/>
     <use style="fill:#da9138;fill-opacity:0.8;stroke:#da9138;stroke-opacity:0.8;" x="330.355584" xlink:href="#m9681e8e24f" y="233.589005"/>
     <use style="fill:#da9138;fill-opacity:0.8;stroke:#da9138;stroke-opacity:0.8;" x="312.538566" xlink:href="#m9681e8e24f" y="218.082909"/>
     <use style="fill:#da9138;fill-opacity:0.8;stroke:#da9138;stroke-opacity:0.8;" x="273.573128" xlink:href="#m9681e8e24f" y="252.971626"/>
     <use style="fill:#da9138;fill-opacity:0.8;stroke:#da9138;stroke-opacity:0.8;" x="276.393615" xlink:href="#m9681e8e24f" y="190.947241"/>
     <use style="fill:#da9138;fill-opacity:0.8;stroke:#da9138;stroke-opacity:0.8;" x="161.646258" xlink:href="#m9681e8e24f" y="179.317668"/>
     <use style="fill:#da9138;fill-opacity:0.8;stroke:#da9138;stroke-opacity:0.8;" x="330.947278" xlink:href="#m9681e8e24f" y="272.354246"/>
     <use style="fill:#da9138;fill-opacity:0.8;stroke:#da9138;stroke-opacity:0.8;" x="332.44301" xlink:href="#m9681e8e24f" y="229.712481"/>
     <use style="fill:#da9138;fill-opacity:0.8;stroke:#da9138;stroke-opacity:0.8;" x="231.23488" xlink:href="#m9681e8e24f" y="210.329861"/>
     <use style="fill:#da9138;fill-opacity:0.8;stroke:#da9138;stroke-opacity:0.8;" x="329.551719" xlink:href="#m9681e8e24f" y="218.082909"/>
     <use style="fill:#da9138;fill-opacity:0.8;stroke:#da9138;stroke-opacity:0.8;" x="261.319501" xlink:href="#m9681e8e24f" y="214.206385"/>
     <use style="fill:#da9138;fill-opacity:0.8;stroke:#da9138;stroke-opacity:0.8;" x="307.381095" xlink:href="#m9681e8e24f" y="241.342053"/>
     <use style="fill:#da9138;fill-opacity:0.8;stroke:#da9138;stroke-opacity:0.8;" x="268.267105" xlink:href="#m9681e8e24f" y="63.021947"/>
     <use style="fill:#da9138;fill-opacity:0.8;stroke:#da9138;stroke-opacity:0.8;" x="308.827866" xlink:href="#m9681e8e24f" y="175.441144"/>
     <use style="fill:#da9138;fill-opacity:0.8;stroke:#da9138;stroke-opacity:0.8;" x="314.720595" xlink:href="#m9681e8e24f" y="245.218578"/>
     <use style="fill:#da9138;fill-opacity:0.8;stroke:#da9138;stroke-opacity:0.8;" x="310.083506" xlink:href="#m9681e8e24f" y="260.724674"/>
     <use style="fill:#da9138;fill-opacity:0.8;stroke:#da9138;stroke-opacity:0.8;" x="185.508677" xlink:href="#m9681e8e24f" y="237.465529"/>
     <use style="fill:#da9138;fill-opacity:0.8;stroke:#da9138;stroke-opacity:0.8;" x="280.866666" xlink:href="#m9681e8e24f" y="194.823765"/>
     <use style="fill:#da9138;fill-opacity:0.8;stroke:#da9138;stroke-opacity:0.8;" x="329.470368" xlink:href="#m9681e8e24f" y="210.329861"/>
     <use style="fill:#da9138;fill-opacity:0.8;stroke:#da9138;stroke-opacity:0.8;" x="324.604786" xlink:href="#m9681e8e24f" y="183.194193"/>
     <use style="fill:#da9138;fill-opacity:0.8;stroke:#da9138;stroke-opacity:0.8;" x="209.267968" xlink:href="#m9681e8e24f" y="86.281091"/>
     <use style="fill:#da9138;fill-opacity:0.8;stroke:#da9138;stroke-opacity:0.8;" x="299.066766" xlink:href="#m9681e8e24f" y="214.206385"/>
     <use style="fill:#da9138;fill-opacity:0.8;stroke:#da9138;stroke-opacity:0.8;" x="310.083506" xlink:href="#m9681e8e24f" y="163.811572"/>
     <use style="fill:#da9138;fill-opacity:0.8;stroke:#da9138;stroke-opacity:0.8;" x="293.930704" xlink:href="#m9681e8e24f" y="237.465529"/>
     <use style="fill:#da9138;fill-opacity:0.8;stroke:#da9138;stroke-opacity:0.8;" x="288.708238" xlink:href="#m9681e8e24f" y="20.380182"/>
     <use style="fill:#da9138;fill-opacity:0.8;stroke:#da9138;stroke-opacity:0.8;" x="298.321331" xlink:href="#m9681e8e24f" y="109.540235"/>
     <use style="fill:#da9138;fill-opacity:0.8;stroke:#da9138;stroke-opacity:0.8;" x="251.793968" xlink:href="#m9681e8e24f" y="179.317668"/>
     <use style="fill:#da9138;fill-opacity:0.8;stroke:#da9138;stroke-opacity:0.8;" x="248.708364" xlink:href="#m9681e8e24f" y="198.700289"/>
     <use style="fill:#da9138;fill-opacity:0.8;stroke:#da9138;stroke-opacity:0.8;" x="330.196196" xlink:href="#m9681e8e24f" y="125.046332"/>
     <use style="fill:#da9138;fill-opacity:0.8;stroke:#da9138;stroke-opacity:0.8;" x="165.189637" xlink:href="#m9681e8e24f" y="171.56462"/>
     <use style="fill:#da9138;fill-opacity:0.8;stroke:#da9138;stroke-opacity:0.8;" x="324.92827" xlink:href="#m9681e8e24f" y="171.56462"/>
     <use style="fill:#da9138;fill-opacity:0.8;stroke:#da9138;stroke-opacity:0.8;" x="322.895182" xlink:href="#m9681e8e24f" y="136.675904"/>
     <use style="fill:#da9138;fill-opacity:0.8;stroke:#da9138;stroke-opacity:0.8;" x="291.29758" xlink:href="#m9681e8e24f" y="159.935048"/>
     <use style="fill:#da9138;fill-opacity:0.8;stroke:#da9138;stroke-opacity:0.8;" x="328.854495" xlink:href="#m9681e8e24f" y="190.947241"/>
     <use style="fill:#da9138;fill-opacity:0.8;stroke:#da9138;stroke-opacity:0.8;" x="324.92827" xlink:href="#m9681e8e24f" y="152.182"/>
     <use style="fill:#da9138;fill-opacity:0.8;stroke:#da9138;stroke-opacity:0.8;" x="254.028472" xlink:href="#m9681e8e24f" y="148.305476"/>
     <use style="fill:#da9138;fill-opacity:0.8;stroke:#da9138;stroke-opacity:0.8;" x="280.715845" xlink:href="#m9681e8e24f" y="183.194193"/>
     <use style="fill:#da9138;fill-opacity:0.8;stroke:#da9138;stroke-opacity:0.8;" x="317.350096" xlink:href="#m9681e8e24f" y="132.79938"/>
     <use style="fill:#da9138;fill-opacity:0.8;stroke:#da9138;stroke-opacity:0.8;" x="286.186774" xlink:href="#m9681e8e24f" y="59.145422"/>
     <use style="fill:#da9138;fill-opacity:0.8;stroke:#da9138;stroke-opacity:0.8;" x="219.180512" xlink:href="#m9681e8e24f" y="190.947241"/>
     <use style="fill:#da9138;fill-opacity:0.8;stroke:#da9138;stroke-opacity:0.8;" x="326.372232" xlink:href="#m9681e8e24f" y="187.070717"/>
     <use style="fill:#da9138;fill-opacity:0.8;stroke:#da9138;stroke-opacity:0.8;" x="313.986808" xlink:href="#m9681e8e24f" y="225.835957"/>
     <use style="fill:#da9138;fill-opacity:0.8;stroke:#da9138;stroke-opacity:0.8;" x="321.609667" xlink:href="#m9681e8e24f" y="136.675904"/>
     <use style="fill:#da9138;fill-opacity:0.8;stroke:#da9138;stroke-opacity:0.8;" x="301.477666" xlink:href="#m9681e8e24f" y="132.79938"/>
     <use style="fill:#da9138;fill-opacity:0.8;stroke:#da9138;stroke-opacity:0.8;" x="273.755818" xlink:href="#m9681e8e24f" y="152.182"/>
     <use style="fill:#da9138;fill-opacity:0.8;stroke:#da9138;stroke-opacity:0.8;" x="283.058499" xlink:href="#m9681e8e24f" y="140.552428"/>
     <use style="fill:#da9138;fill-opacity:0.8;stroke:#da9138;stroke-opacity:0.8;" x="285.661291" xlink:href="#m9681e8e24f" y="156.058524"/>
     <use style="fill:#da9138;fill-opacity:0.8;stroke:#da9138;stroke-opacity:0.8;" x="308.969495" xlink:href="#m9681e8e24f" y="90.157615"/>
     <use style="fill:#da9138;fill-opacity:0.8;stroke:#da9138;stroke-opacity:0.8;" x="328.228247" xlink:href="#m9681e8e24f" y="132.79938"/>
     <use style="fill:#da9138;fill-opacity:0.8;stroke:#da9138;stroke-opacity:0.8;" x="310.083506" xlink:href="#m9681e8e24f" y="198.700289"/>
     <use style="fill:#da9138;fill-opacity:0.8;stroke:#da9138;stroke-opacity:0.8;" x="276.223467" xlink:href="#m9681e8e24f" y="66.898471"/>
     <use style="fill:#da9138;fill-opacity:0.8;stroke:#da9138;stroke-opacity:0.8;" x="267.842216" xlink:href="#m9681e8e24f" y="121.169807"/>
     <use style="fill:#da9138;fill-opacity:0.8;stroke:#da9138;stroke-opacity:0.8;" x="247.620169" xlink:href="#m9681e8e24f" y="159.935048"/>
     <use style="fill:#da9138;fill-opacity:0.8;stroke:#da9138;stroke-opacity:0.8;" x="274.477731" xlink:href="#m9681e8e24f" y="194.823765"/>
     <use style="fill:#da9138;fill-opacity:0.8;stroke:#da9138;stroke-opacity:0.8;" x="320.016476" xlink:href="#m9681e8e24f" y="159.935048"/>
     <use style="fill:#da9138;fill-opacity:0.8;stroke:#da9138;stroke-opacity:0.8;" x="303.250361" xlink:href="#m9681e8e24f" y="175.441144"/>
     <use style="fill:#da9138;fill-opacity:0.8;stroke:#da9138;stroke-opacity:0.8;" x="270.719246" xlink:href="#m9681e8e24f" y="132.79938"/>
     <use style="fill:#da9138;fill-opacity:0.8;stroke:#da9138;stroke-opacity:0.8;" x="116.885754" xlink:href="#m9681e8e24f" y="280.107294"/>
     <use style="fill:#da9138;fill-opacity:0.8;stroke:#da9138;stroke-opacity:0.8;" x="314.233016" xlink:href="#m9681e8e24f" y="136.675904"/>
     <use style="fill:#da9138;fill-opacity:0.8;stroke:#da9138;stroke-opacity:0.8;" x="310.083506" xlink:href="#m9681e8e24f" y="159.935048"/>
     <use style="fill:#da9138;fill-opacity:0.8;stroke:#da9138;stroke-opacity:0.8;" x="266.977588" xlink:href="#m9681e8e24f" y="179.317668"/>
     <use style="fill:#da9138;fill-opacity:0.8;stroke:#da9138;stroke-opacity:0.8;" x="308.039118" xlink:href="#m9681e8e24f" y="70.774995"/>
     <use style="fill:#da9138;fill-opacity:0.8;stroke:#da9138;stroke-opacity:0.8;" x="314.720595" xlink:href="#m9681e8e24f" y="159.935048"/>
     <use style="fill:#da9138;fill-opacity:0.8;stroke:#da9138;stroke-opacity:0.8;" x="153.350375" xlink:href="#m9681e8e24f" y="198.700289"/>
     <use style="fill:#da9138;fill-opacity:0.8;stroke:#da9138;stroke-opacity:0.8;" x="324.88223" xlink:href="#m9681e8e24f" y="128.922856"/>
     <use style="fill:#da9138;fill-opacity:0.8;stroke:#da9138;stroke-opacity:0.8;" x="307.233272" xlink:href="#m9681e8e24f" y="78.528043"/>
     <use style="fill:#da9138;fill-opacity:0.8;stroke:#da9138;stroke-opacity:0.8;" x="192.611602" xlink:href="#m9681e8e24f" y="78.528043"/>
     <use style="fill:#da9138;fill-opacity:0.8;stroke:#da9138;stroke-opacity:0.8;" x="277.563335" xlink:href="#m9681e8e24f" y="140.552428"/>
     <use style="fill:#da9138;fill-opacity:0.8;stroke:#da9138;stroke-opacity:0.8;" x="148.386033" xlink:href="#m9681e8e24f" y="256.84815"/>
     <use style="fill:#da9138;fill-opacity:0.8;stroke:#da9138;stroke-opacity:0.8;" x="303.250361" xlink:href="#m9681e8e24f" y="86.281091"/>
     <use style="fill:#da9138;fill-opacity:0.8;stroke:#da9138;stroke-opacity:0.8;" x="285.661291" xlink:href="#m9681e8e24f" y="152.182"/>
     <use style="fill:#da9138;fill-opacity:0.8;stroke:#da9138;stroke-opacity:0.8;" x="326.372232" xlink:href="#m9681e8e24f" y="74.651519"/>
     <use style="fill:#da9138;fill-opacity:0.8;stroke:#da9138;stroke-opacity:0.8;" x="148.386033" xlink:href="#m9681e8e24f" y="221.959433"/>
     <use style="fill:#da9138;fill-opacity:0.8;stroke:#da9138;stroke-opacity:0.8;" x="331.874828" xlink:href="#m9681e8e24f" y="97.910663"/>
     <use style="fill:#da9138;fill-opacity:0.8;stroke:#da9138;stroke-opacity:0.8;" x="257.571851" xlink:href="#m9681e8e24f" y="187.070717"/>
     <use style="fill:#da9138;fill-opacity:0.8;stroke:#da9138;stroke-opacity:0.8;" x="306.935852" xlink:href="#m9681e8e24f" y="159.935048"/>
     <use style="fill:#da9138;fill-opacity:0.8;stroke:#da9138;stroke-opacity:0.8;" x="332.103144" xlink:href="#m9681e8e24f" y="20.380182"/>
     <use style="fill:#da9138;fill-opacity:0.8;stroke:#da9138;stroke-opacity:0.8;" x="278.215586" xlink:href="#m9681e8e24f" y="132.79938"/>
     <use style="fill:#da9138;fill-opacity:0.8;stroke:#da9138;stroke-opacity:0.8;" x="299.342495" xlink:href="#m9681e8e24f" y="78.528043"/>
     <use style="fill:#da9138;fill-opacity:0.8;stroke:#da9138;stroke-opacity:0.8;" x="330.395325" xlink:href="#m9681e8e24f" y="63.021947"/>
     <use style="fill:#da9138;fill-opacity:0.8;stroke:#da9138;stroke-opacity:0.8;" x="315.201862" xlink:href="#m9681e8e24f" y="59.145422"/>
     <use style="fill:#da9138;fill-opacity:0.8;stroke:#da9138;stroke-opacity:0.8;" x="331.25904" xlink:href="#m9681e8e24f" y="32.009754"/>
     <use style="fill:#da9138;fill-opacity:0.8;stroke:#da9138;stroke-opacity:0.8;" x="310.083506" xlink:href="#m9681e8e24f" y="144.428952"/>
     <use style="fill:#da9138;fill-opacity:0.8;stroke:#da9138;stroke-opacity:0.8;" x="316.953081" xlink:href="#m9681e8e24f" y="82.404567"/>
    </g>
   </g>
   <g id="PolyCollection_1">
    <path clip-path="url(#p2b659622f9)" d="M 116.885754 153.436257 
L 116.885754 235.960457 
L 119.066502 235.181386 
L 121.24725 234.402315 
L 123.427998 233.673787 
L 125.608746 232.948754 
L 127.789493 232.125883 
L 129.970241 231.335708 
L 132.150989 230.529798 
L 134.331737 229.742928 
L 136.512485 229.042148 
L 138.693233 228.509981 
L 140.873981 227.952584 
L 143.054729 227.096305 
L 145.235477 226.282563 
L 147.416225 225.646024 
L 149.596973 225.009485 
L 151.777721 224.372946 
L 153.958468 223.663417 
L 156.139216 222.947317 
L 158.319964 222.15501 
L 160.500712 221.382874 
L 162.68146 220.642046 
L 164.862208 219.849354 
L 167.042956 219.187494 
L 169.223704 218.527319 
L 171.404452 217.876431 
L 173.5852 217.14635 
L 175.765948 216.371735 
L 177.946695 215.598931 
L 180.127443 214.826127 
L 182.308191 214.053323 
L 184.488939 213.279412 
L 186.669687 212.504571 
L 188.850435 211.822901 
L 191.031183 211.25934 
L 193.211931 210.703155 
L 195.392679 210.07744 
L 197.573427 209.425074 
L 199.754175 208.765822 
L 201.934923 208.165541 
L 204.11567 207.472902 
L 206.296418 206.680791 
L 208.477166 206.01047 
L 210.657914 205.524646 
L 212.838662 204.7414 
L 215.01941 204.041711 
L 217.200158 203.400288 
L 219.380906 202.756579 
L 221.561654 202.259502 
L 223.742402 201.767225 
L 225.92315 201.284215 
L 228.103898 200.797615 
L 230.284645 200.305986 
L 232.465393 199.62473 
L 234.646141 199.212804 
L 236.826889 198.747252 
L 239.007637 198.102006 
L 241.188385 197.775781 
L 243.369133 197.443283 
L 245.549881 196.920787 
L 247.730629 196.526422 
L 249.911377 195.925642 
L 252.092125 195.435626 
L 254.272873 194.860513 
L 256.45362 194.573803 
L 258.634368 194.019862 
L 260.815116 193.704578 
L 262.995864 193.236562 
L 265.176612 192.776119 
L 267.35736 192.654302 
L 269.538108 192.320596 
L 271.718856 191.925807 
L 273.899604 191.640359 
L 276.080352 191.398568 
L 278.2611 191.233493 
L 280.441847 191.006765 
L 282.622595 190.893668 
L 284.803343 190.6123 
L 286.984091 190.334269 
L 289.164839 190.206807 
L 291.345587 190.127289 
L 293.526335 190.100051 
L 295.707083 189.965927 
L 297.887831 189.959215 
L 300.068579 189.887828 
L 302.249327 189.754155 
L 304.430075 189.618355 
L 306.610822 189.678195 
L 308.79157 189.734149 
L 310.972318 189.715092 
L 313.153066 189.510623 
L 315.333814 189.397087 
L 317.514562 189.642723 
L 319.69531 189.740758 
L 321.876058 189.690794 
L 324.056806 189.857813 
L 326.237554 189.848984 
L 328.418302 189.833653 
L 330.59905 189.949862 
L 332.779797 189.828837 
L 332.779797 154.491305 
L 332.779797 154.491305 
L 330.59905 155.189088 
L 328.418302 155.78064 
L 326.237554 156.335857 
L 324.056806 156.753297 
L 321.876058 157.446841 
L 319.69531 158.115225 
L 317.514562 158.426649 
L 315.333814 158.991635 
L 313.153066 159.713916 
L 310.972318 160.367516 
L 308.79157 161.025251 
L 306.610822 161.422204 
L 304.430075 161.877228 
L 302.249327 162.173262 
L 300.068579 162.550402 
L 297.887831 162.962974 
L 295.707083 163.582158 
L 293.526335 164.109635 
L 291.345587 164.23013 
L 289.164839 164.824796 
L 286.984091 165.285339 
L 284.803343 165.643422 
L 282.622595 166.067203 
L 280.441847 166.602969 
L 278.2611 167.222911 
L 276.080352 167.645749 
L 273.899604 167.367933 
L 271.718856 167.458081 
L 269.538108 167.918692 
L 267.35736 167.874466 
L 265.176612 167.899448 
L 262.995864 167.897798 
L 260.815116 167.891841 
L 258.634368 167.886691 
L 256.45362 167.82872 
L 254.272873 167.875609 
L 252.092125 167.870841 
L 249.911377 167.866073 
L 247.730629 168.055355 
L 245.549881 168.074131 
L 243.369133 168.197323 
L 241.188385 168.060167 
L 239.007637 167.979366 
L 236.826889 167.843034 
L 234.646141 167.820831 
L 232.465393 167.755958 
L 230.284645 167.726747 
L 228.103898 167.579407 
L 225.92315 167.202855 
L 223.742402 167.150612 
L 221.561654 166.798117 
L 219.380906 166.33539 
L 217.200158 165.891928 
L 215.01941 165.945019 
L 212.838662 166.002746 
L 210.657914 165.836619 
L 208.477166 165.619832 
L 206.296418 165.64833 
L 204.11567 165.261014 
L 201.934923 164.960609 
L 199.754175 164.820357 
L 197.573427 164.521468 
L 195.392679 164.120602 
L 193.211931 163.801854 
L 191.031183 163.465947 
L 188.850435 163.099517 
L 186.669687 162.733087 
L 184.488939 162.366658 
L 182.308191 162.000228 
L 180.127443 161.633798 
L 177.946695 161.267369 
L 175.765948 160.900939 
L 173.5852 160.537826 
L 171.404452 160.174867 
L 169.223704 159.811908 
L 167.042956 159.461289 
L 164.862208 159.196771 
L 162.68146 158.932252 
L 160.500712 158.667734 
L 158.319964 158.404064 
L 156.139216 158.141974 
L 153.958468 157.879884 
L 151.777721 157.617794 
L 149.596973 157.355705 
L 147.416225 157.093615 
L 145.235477 156.831525 
L 143.054729 156.569435 
L 140.873981 156.307379 
L 138.693233 156.045677 
L 136.512485 155.783975 
L 134.331737 155.522273 
L 132.150989 155.260571 
L 129.970241 154.998869 
L 127.789493 154.740565 
L 125.608746 154.482471 
L 123.427998 154.274311 
L 121.24725 154.063044 
L 119.066502 153.73022 
L 116.885754 153.436257 
z
" style="fill:#117733;fill-opacity:0.15;"/>
   </g>
   <g id="matplotlib.axis_1">
    <g id="xtick_1">
     <g id="line2d_1">
      <defs>
       <path d="M 0 0 
L 0 4.8 
" id="md500c58a6d" style="stroke:#000000;"/>
      </defs>
      <g>
       <use style="stroke:#000000;" x="76.042273" xlink:href="#md500c58a6d" y="297.164"/>
      </g>
     </g>
     <g id="text_1">
      <!-- 1.0 -->
      <g transform="translate(61.729461 319.141187)scale(0.18 -0.18)">
       <defs>
        <path d="M 12.40625 8.296875 
L 28.515625 8.296875 
L 28.515625 63.921875 
L 10.984375 60.40625 
L 10.984375 69.390625 
L 28.421875 72.90625 
L 38.28125 72.90625 
L 38.28125 8.296875 
L 54.390625 8.296875 
L 54.390625 0 
L 12.40625 0 
z
" id="DejaVuSans-49"/>
        <path d="M 10.6875 12.40625 
L 21 12.40625 
L 21 0 
L 10.6875 0 
z
" id="DejaVuSans-46"/>
        <path d="M 31.78125 66.40625 
Q 24.171875 66.40625 20.328125 58.90625 
Q 16.5 51.421875 16.5 36.375 
Q 16.5 21.390625 20.328125 13.890625 
Q 24.171875 6.390625 31.78125 6.390625 
Q 39.453125 6.390625 43.28125 13.890625 
Q 47.125 21.390625 47.125 36.375 
Q 47.125 51.421875 43.28125 58.90625 
Q 39.453125 66.40625 31.78125 66.40625 
z
M 31.78125 74.21875 
Q 44.046875 74.21875 50.515625 64.515625 
Q 56.984375 54.828125 56.984375 36.375 
Q 56.984375 17.96875 50.515625 8.265625 
Q 44.046875 -1.421875 31.78125 -1.421875 
Q 19.53125 -1.421875 13.0625 8.265625 
Q 6.59375 17.96875 6.59375 36.375 
Q 6.59375 54.828125 13.0625 64.515625 
Q 19.53125 74.21875 31.78125 74.21875 
z
" id="DejaVuSans-48"/>
       </defs>
       <use xlink:href="#DejaVuSans-49"/>
       <use x="63.623047" xlink:href="#DejaVuSans-46"/>
       <use x="95.410156" xlink:href="#DejaVuSans-48"/>
      </g>
     </g>
    </g>
    <g id="xtick_2">
     <g id="line2d_2">
      <g>
       <use style="stroke:#000000;" x="118.844266" xlink:href="#md500c58a6d" y="297.164"/>
      </g>
     </g>
     <g id="text_2">
      <!-- 1.5 -->
      <g transform="translate(104.531453 319.141187)scale(0.18 -0.18)">
       <defs>
        <path d="M 10.796875 72.90625 
L 49.515625 72.90625 
L 49.515625 64.59375 
L 19.828125 64.59375 
L 19.828125 46.734375 
Q 21.96875 47.46875 24.109375 47.828125 
Q 26.265625 48.1875 28.421875 48.1875 
Q 40.625 48.1875 47.75 41.5 
Q 54.890625 34.8125 54.890625 23.390625 
Q 54.890625 11.625 47.5625 5.09375 
Q 40.234375 -1.421875 26.90625 -1.421875 
Q 22.3125 -1.421875 17.546875 -0.640625 
Q 12.796875 0.140625 7.71875 1.703125 
L 7.71875 11.625 
Q 12.109375 9.234375 16.796875 8.0625 
Q 21.484375 6.890625 26.703125 6.890625 
Q 35.15625 6.890625 40.078125 11.328125 
Q 45.015625 15.765625 45.015625 23.390625 
Q 45.015625 31 40.078125 35.4375 
Q 35.15625 39.890625 26.703125 39.890625 
Q 22.75 39.890625 18.8125 39.015625 
Q 14.890625 38.140625 10.796875 36.28125 
z
" id="DejaVuSans-53"/>
       </defs>
       <use xlink:href="#DejaVuSans-49"/>
       <use x="63.623047" xlink:href="#DejaVuSans-46"/>
       <use x="95.410156" xlink:href="#DejaVuSans-53"/>
      </g>
     </g>
    </g>
    <g id="xtick_3">
     <g id="line2d_3">
      <g>
       <use style="stroke:#000000;" x="161.646258" xlink:href="#md500c58a6d" y="297.164"/>
      </g>
     </g>
     <g id="text_3">
      <!-- 2.0 -->
      <g transform="translate(147.333445 319.141187)scale(0.18 -0.18)">
       <defs>
        <path d="M 19.1875 8.296875 
L 53.609375 8.296875 
L 53.609375 0 
L 7.328125 0 
L 7.328125 8.296875 
Q 12.9375 14.109375 22.625 23.890625 
Q 32.328125 33.6875 34.8125 36.53125 
Q 39.546875 41.84375 41.421875 45.53125 
Q 43.3125 49.21875 43.3125 52.78125 
Q 43.3125 58.59375 39.234375 62.25 
Q 35.15625 65.921875 28.609375 65.921875 
Q 23.96875 65.921875 18.8125 64.3125 
Q 13.671875 62.703125 7.8125 59.421875 
L 7.8125 69.390625 
Q 13.765625 71.78125 18.9375 73 
Q 24.125 74.21875 28.421875 74.21875 
Q 39.75 74.21875 46.484375 68.546875 
Q 53.21875 62.890625 53.21875 53.421875 
Q 53.21875 48.921875 51.53125 44.890625 
Q 49.859375 40.875 45.40625 35.40625 
Q 44.1875 33.984375 37.640625 27.21875 
Q 31.109375 20.453125 19.1875 8.296875 
z
" id="DejaVuSans-50"/>
       </defs>
       <use xlink:href="#DejaVuSans-50"/>
       <use x="63.623047" xlink:href="#DejaVuSans-46"/>
       <use x="95.410156" xlink:href="#DejaVuSans-48"/>
      </g>
     </g>
    </g>
    <g id="xtick_4">
     <g id="line2d_4">
      <g>
       <use style="stroke:#000000;" x="204.44825" xlink:href="#md500c58a6d" y="297.164"/>
      </g>
     </g>
     <g id="text_4">
      <!-- 2.5 -->
      <g transform="translate(190.135437 319.141187)scale(0.18 -0.18)">
       <use xlink:href="#DejaVuSans-50"/>
       <use x="63.623047" xlink:href="#DejaVuSans-46"/>
       <use x="95.410156" xlink:href="#DejaVuSans-53"/>
      </g>
     </g>
    </g>
    <g id="xtick_5">
     <g id="line2d_5">
      <g>
       <use style="stroke:#000000;" x="247.250242" xlink:href="#md500c58a6d" y="297.164"/>
      </g>
     </g>
     <g id="text_5">
      <!-- 3.0 -->
      <g transform="translate(232.93743 319.141187)scale(0.18 -0.18)">
       <defs>
        <path d="M 40.578125 39.3125 
Q 47.65625 37.796875 51.625 33 
Q 55.609375 28.21875 55.609375 21.1875 
Q 55.609375 10.40625 48.1875 4.484375 
Q 40.765625 -1.421875 27.09375 -1.421875 
Q 22.515625 -1.421875 17.65625 -0.515625 
Q 12.796875 0.390625 7.625 2.203125 
L 7.625 11.71875 
Q 11.71875 9.328125 16.59375 8.109375 
Q 21.484375 6.890625 26.8125 6.890625 
Q 36.078125 6.890625 40.9375 10.546875 
Q 45.796875 14.203125 45.796875 21.1875 
Q 45.796875 27.640625 41.28125 31.265625 
Q 36.765625 34.90625 28.71875 34.90625 
L 20.21875 34.90625 
L 20.21875 43.015625 
L 29.109375 43.015625 
Q 36.375 43.015625 40.234375 45.921875 
Q 44.09375 48.828125 44.09375 54.296875 
Q 44.09375 59.90625 40.109375 62.90625 
Q 36.140625 65.921875 28.71875 65.921875 
Q 24.65625 65.921875 20.015625 65.03125 
Q 15.375 64.15625 9.8125 62.3125 
L 9.8125 71.09375 
Q 15.4375 72.65625 20.34375 73.4375 
Q 25.25 74.21875 29.59375 74.21875 
Q 40.828125 74.21875 47.359375 69.109375 
Q 53.90625 64.015625 53.90625 55.328125 
Q 53.90625 49.265625 50.4375 45.09375 
Q 46.96875 40.921875 40.578125 39.3125 
z
" id="DejaVuSans-51"/>
       </defs>
       <use xlink:href="#DejaVuSans-51"/>
       <use x="63.623047" xlink:href="#DejaVuSans-46"/>
       <use x="95.410156" xlink:href="#DejaVuSans-48"/>
      </g>
     </g>
    </g>
    <g id="xtick_6">
     <g id="line2d_6">
      <g>
       <use style="stroke:#000000;" x="290.052234" xlink:href="#md500c58a6d" y="297.164"/>
      </g>
     </g>
     <g id="text_6">
      <!-- 3.5 -->
      <g transform="translate(275.739422 319.141187)scale(0.18 -0.18)">
       <use xlink:href="#DejaVuSans-51"/>
       <use x="63.623047" xlink:href="#DejaVuSans-46"/>
       <use x="95.410156" xlink:href="#DejaVuSans-53"/>
      </g>
     </g>
    </g>
    <g id="xtick_7">
     <g id="line2d_7">
      <g>
       <use style="stroke:#000000;" x="332.854227" xlink:href="#md500c58a6d" y="297.164"/>
      </g>
     </g>
     <g id="text_7">
      <!-- 4.0 -->
      <g transform="translate(318.541414 319.141187)scale(0.18 -0.18)">
       <defs>
        <path d="M 37.796875 64.3125 
L 12.890625 25.390625 
L 37.796875 25.390625 
z
M 35.203125 72.90625 
L 47.609375 72.90625 
L 47.609375 25.390625 
L 58.015625 25.390625 
L 58.015625 17.1875 
L 47.609375 17.1875 
L 47.609375 0 
L 37.796875 0 
L 37.796875 17.1875 
L 4.890625 17.1875 
L 4.890625 26.703125 
z
" id="DejaVuSans-52"/>
       </defs>
       <use xlink:href="#DejaVuSans-52"/>
       <use x="63.623047" xlink:href="#DejaVuSans-46"/>
       <use x="95.410156" xlink:href="#DejaVuSans-48"/>
      </g>
     </g>
    </g>
    <g id="text_8">
     <!-- Description length (in log-scale) -->
     <g transform="translate(44.546687 342.0815)scale(0.2 -0.2)">
      <defs>
       <path d="M 19.671875 64.796875 
L 19.671875 8.109375 
L 31.59375 8.109375 
Q 46.6875 8.109375 53.6875 14.9375 
Q 60.6875 21.78125 60.6875 36.53125 
Q 60.6875 51.171875 53.6875 57.984375 
Q 46.6875 64.796875 31.59375 64.796875 
z
M 9.8125 72.90625 
L 30.078125 72.90625 
Q 51.265625 72.90625 61.171875 64.09375 
Q 71.09375 55.28125 71.09375 36.53125 
Q 71.09375 17.671875 61.125 8.828125 
Q 51.171875 0 30.078125 0 
L 9.8125 0 
z
" id="DejaVuSans-68"/>
       <path d="M 56.203125 29.59375 
L 56.203125 25.203125 
L 14.890625 25.203125 
Q 15.484375 15.921875 20.484375 11.0625 
Q 25.484375 6.203125 34.421875 6.203125 
Q 39.59375 6.203125 44.453125 7.46875 
Q 49.3125 8.734375 54.109375 11.28125 
L 54.109375 2.78125 
Q 49.265625 0.734375 44.1875 -0.34375 
Q 39.109375 -1.421875 33.890625 -1.421875 
Q 20.796875 -1.421875 13.15625 6.1875 
Q 5.515625 13.8125 5.515625 26.8125 
Q 5.515625 40.234375 12.765625 48.109375 
Q 20.015625 56 32.328125 56 
Q 43.359375 56 49.78125 48.890625 
Q 56.203125 41.796875 56.203125 29.59375 
z
M 47.21875 32.234375 
Q 47.125 39.59375 43.09375 43.984375 
Q 39.0625 48.390625 32.421875 48.390625 
Q 24.90625 48.390625 20.390625 44.140625 
Q 15.875 39.890625 15.1875 32.171875 
z
" id="DejaVuSans-101"/>
       <path d="M 44.28125 53.078125 
L 44.28125 44.578125 
Q 40.484375 46.53125 36.375 47.5 
Q 32.28125 48.484375 27.875 48.484375 
Q 21.1875 48.484375 17.84375 46.4375 
Q 14.5 44.390625 14.5 40.28125 
Q 14.5 37.15625 16.890625 35.375 
Q 19.28125 33.59375 26.515625 31.984375 
L 29.59375 31.296875 
Q 39.15625 29.25 43.1875 25.515625 
Q 47.21875 21.78125 47.21875 15.09375 
Q 47.21875 7.46875 41.1875 3.015625 
Q 35.15625 -1.421875 24.609375 -1.421875 
Q 20.21875 -1.421875 15.453125 -0.5625 
Q 10.6875 0.296875 5.421875 2 
L 5.421875 11.28125 
Q 10.40625 8.6875 15.234375 7.390625 
Q 20.0625 6.109375 24.8125 6.109375 
Q 31.15625 6.109375 34.5625 8.28125 
Q 37.984375 10.453125 37.984375 14.40625 
Q 37.984375 18.0625 35.515625 20.015625 
Q 33.0625 21.96875 24.703125 23.78125 
L 21.578125 24.515625 
Q 13.234375 26.265625 9.515625 29.90625 
Q 5.8125 33.546875 5.8125 39.890625 
Q 5.8125 47.609375 11.28125 51.796875 
Q 16.75 56 26.8125 56 
Q 31.78125 56 36.171875 55.265625 
Q 40.578125 54.546875 44.28125 53.078125 
z
" id="DejaVuSans-115"/>
       <path d="M 48.78125 52.59375 
L 48.78125 44.1875 
Q 44.96875 46.296875 41.140625 47.34375 
Q 37.3125 48.390625 33.40625 48.390625 
Q 24.65625 48.390625 19.8125 42.84375 
Q 14.984375 37.3125 14.984375 27.296875 
Q 14.984375 17.28125 19.8125 11.734375 
Q 24.65625 6.203125 33.40625 6.203125 
Q 37.3125 6.203125 41.140625 7.25 
Q 44.96875 8.296875 48.78125 10.40625 
L 48.78125 2.09375 
Q 45.015625 0.34375 40.984375 -0.53125 
Q 36.96875 -1.421875 32.421875 -1.421875 
Q 20.0625 -1.421875 12.78125 6.34375 
Q 5.515625 14.109375 5.515625 27.296875 
Q 5.515625 40.671875 12.859375 48.328125 
Q 20.21875 56 33.015625 56 
Q 37.15625 56 41.109375 55.140625 
Q 45.0625 54.296875 48.78125 52.59375 
z
" id="DejaVuSans-99"/>
       <path d="M 41.109375 46.296875 
Q 39.59375 47.171875 37.8125 47.578125 
Q 36.03125 48 33.890625 48 
Q 26.265625 48 22.1875 43.046875 
Q 18.109375 38.09375 18.109375 28.8125 
L 18.109375 0 
L 9.078125 0 
L 9.078125 54.6875 
L 18.109375 54.6875 
L 18.109375 46.1875 
Q 20.953125 51.171875 25.484375 53.578125 
Q 30.03125 56 36.53125 56 
Q 37.453125 56 38.578125 55.875 
Q 39.703125 55.765625 41.0625 55.515625 
z
" id="DejaVuSans-114"/>
       <path d="M 9.421875 54.6875 
L 18.40625 54.6875 
L 18.40625 0 
L 9.421875 0 
z
M 9.421875 75.984375 
L 18.40625 75.984375 
L 18.40625 64.59375 
L 9.421875 64.59375 
z
" id="DejaVuSans-105"/>
       <path d="M 18.109375 8.203125 
L 18.109375 -20.796875 
L 9.078125 -20.796875 
L 9.078125 54.6875 
L 18.109375 54.6875 
L 18.109375 46.390625 
Q 20.953125 51.265625 25.265625 53.625 
Q 29.59375 56 35.59375 56 
Q 45.5625 56 51.78125 48.09375 
Q 58.015625 40.1875 58.015625 27.296875 
Q 58.015625 14.40625 51.78125 6.484375 
Q 45.5625 -1.421875 35.59375 -1.421875 
Q 29.59375 -1.421875 25.265625 0.953125 
Q 20.953125 3.328125 18.109375 8.203125 
z
M 48.6875 27.296875 
Q 48.6875 37.203125 44.609375 42.84375 
Q 40.53125 48.484375 33.40625 48.484375 
Q 26.265625 48.484375 22.1875 42.84375 
Q 18.109375 37.203125 18.109375 27.296875 
Q 18.109375 17.390625 22.1875 11.75 
Q 26.265625 6.109375 33.40625 6.109375 
Q 40.53125 6.109375 44.609375 11.75 
Q 48.6875 17.390625 48.6875 27.296875 
z
" id="DejaVuSans-112"/>
       <path d="M 18.3125 70.21875 
L 18.3125 54.6875 
L 36.8125 54.6875 
L 36.8125 47.703125 
L 18.3125 47.703125 
L 18.3125 18.015625 
Q 18.3125 11.328125 20.140625 9.421875 
Q 21.96875 7.515625 27.59375 7.515625 
L 36.8125 7.515625 
L 36.8125 0 
L 27.59375 0 
Q 17.1875 0 13.234375 3.875 
Q 9.28125 7.765625 9.28125 18.015625 
L 9.28125 47.703125 
L 2.6875 47.703125 
L 2.6875 54.6875 
L 9.28125 54.6875 
L 9.28125 70.21875 
z
" id="DejaVuSans-116"/>
       <path d="M 30.609375 48.390625 
Q 23.390625 48.390625 19.1875 42.75 
Q 14.984375 37.109375 14.984375 27.296875 
Q 14.984375 17.484375 19.15625 11.84375 
Q 23.34375 6.203125 30.609375 6.203125 
Q 37.796875 6.203125 41.984375 11.859375 
Q 46.1875 17.53125 46.1875 27.296875 
Q 46.1875 37.015625 41.984375 42.703125 
Q 37.796875 48.390625 30.609375 48.390625 
z
M 30.609375 56 
Q 42.328125 56 49.015625 48.375 
Q 55.71875 40.765625 55.71875 27.296875 
Q 55.71875 13.875 49.015625 6.21875 
Q 42.328125 -1.421875 30.609375 -1.421875 
Q 18.84375 -1.421875 12.171875 6.21875 
Q 5.515625 13.875 5.515625 27.296875 
Q 5.515625 40.765625 12.171875 48.375 
Q 18.84375 56 30.609375 56 
z
" id="DejaVuSans-111"/>
       <path d="M 54.890625 33.015625 
L 54.890625 0 
L 45.90625 0 
L 45.90625 32.71875 
Q 45.90625 40.484375 42.875 44.328125 
Q 39.84375 48.1875 33.796875 48.1875 
Q 26.515625 48.1875 22.3125 43.546875 
Q 18.109375 38.921875 18.109375 30.90625 
L 18.109375 0 
L 9.078125 0 
L 9.078125 54.6875 
L 18.109375 54.6875 
L 18.109375 46.1875 
Q 21.34375 51.125 25.703125 53.5625 
Q 30.078125 56 35.796875 56 
Q 45.21875 56 50.046875 50.171875 
Q 54.890625 44.34375 54.890625 33.015625 
z
" id="DejaVuSans-110"/>
       <path id="DejaVuSans-32"/>
       <path d="M 9.421875 75.984375 
L 18.40625 75.984375 
L 18.40625 0 
L 9.421875 0 
z
" id="DejaVuSans-108"/>
       <path d="M 45.40625 27.984375 
Q 45.40625 37.75 41.375 43.109375 
Q 37.359375 48.484375 30.078125 48.484375 
Q 22.859375 48.484375 18.828125 43.109375 
Q 14.796875 37.75 14.796875 27.984375 
Q 14.796875 18.265625 18.828125 12.890625 
Q 22.859375 7.515625 30.078125 7.515625 
Q 37.359375 7.515625 41.375 12.890625 
Q 45.40625 18.265625 45.40625 27.984375 
z
M 54.390625 6.78125 
Q 54.390625 -7.171875 48.1875 -13.984375 
Q 42 -20.796875 29.203125 -20.796875 
Q 24.46875 -20.796875 20.265625 -20.09375 
Q 16.0625 -19.390625 12.109375 -17.921875 
L 12.109375 -9.1875 
Q 16.0625 -11.328125 19.921875 -12.34375 
Q 23.78125 -13.375 27.78125 -13.375 
Q 36.625 -13.375 41.015625 -8.765625 
Q 45.40625 -4.15625 45.40625 5.171875 
L 45.40625 9.625 
Q 42.625 4.78125 38.28125 2.390625 
Q 33.9375 0 27.875 0 
Q 17.828125 0 11.671875 7.65625 
Q 5.515625 15.328125 5.515625 27.984375 
Q 5.515625 40.671875 11.671875 48.328125 
Q 17.828125 56 27.875 56 
Q 33.9375 56 38.28125 53.609375 
Q 42.625 51.21875 45.40625 46.390625 
L 45.40625 54.6875 
L 54.390625 54.6875 
z
" id="DejaVuSans-103"/>
       <path d="M 54.890625 33.015625 
L 54.890625 0 
L 45.90625 0 
L 45.90625 32.71875 
Q 45.90625 40.484375 42.875 44.328125 
Q 39.84375 48.1875 33.796875 48.1875 
Q 26.515625 48.1875 22.3125 43.546875 
Q 18.109375 38.921875 18.109375 30.90625 
L 18.109375 0 
L 9.078125 0 
L 9.078125 75.984375 
L 18.109375 75.984375 
L 18.109375 46.1875 
Q 21.34375 51.125 25.703125 53.5625 
Q 30.078125 56 35.796875 56 
Q 45.21875 56 50.046875 50.171875 
Q 54.890625 44.34375 54.890625 33.015625 
z
" id="DejaVuSans-104"/>
       <path d="M 31 75.875 
Q 24.46875 64.65625 21.28125 53.65625 
Q 18.109375 42.671875 18.109375 31.390625 
Q 18.109375 20.125 21.3125 9.0625 
Q 24.515625 -2 31 -13.1875 
L 23.1875 -13.1875 
Q 15.875 -1.703125 12.234375 9.375 
Q 8.59375 20.453125 8.59375 31.390625 
Q 8.59375 42.28125 12.203125 53.3125 
Q 15.828125 64.359375 23.1875 75.875 
z
" id="DejaVuSans-40"/>
       <path d="M 4.890625 31.390625 
L 31.203125 31.390625 
L 31.203125 23.390625 
L 4.890625 23.390625 
z
" id="DejaVuSans-45"/>
       <path d="M 34.28125 27.484375 
Q 23.390625 27.484375 19.1875 25 
Q 14.984375 22.515625 14.984375 16.5 
Q 14.984375 11.71875 18.140625 8.90625 
Q 21.296875 6.109375 26.703125 6.109375 
Q 34.1875 6.109375 38.703125 11.40625 
Q 43.21875 16.703125 43.21875 25.484375 
L 43.21875 27.484375 
z
M 52.203125 31.203125 
L 52.203125 0 
L 43.21875 0 
L 43.21875 8.296875 
Q 40.140625 3.328125 35.546875 0.953125 
Q 30.953125 -1.421875 24.3125 -1.421875 
Q 15.921875 -1.421875 10.953125 3.296875 
Q 6 8.015625 6 15.921875 
Q 6 25.140625 12.171875 29.828125 
Q 18.359375 34.515625 30.609375 34.515625 
L 43.21875 34.515625 
L 43.21875 35.40625 
Q 43.21875 41.609375 39.140625 45 
Q 35.0625 48.390625 27.6875 48.390625 
Q 23 48.390625 18.546875 47.265625 
Q 14.109375 46.140625 10.015625 43.890625 
L 10.015625 52.203125 
Q 14.9375 54.109375 19.578125 55.046875 
Q 24.21875 56 28.609375 56 
Q 40.484375 56 46.34375 49.84375 
Q 52.203125 43.703125 52.203125 31.203125 
z
" id="DejaVuSans-97"/>
       <path d="M 8.015625 75.875 
L 15.828125 75.875 
Q 23.140625 64.359375 26.78125 53.3125 
Q 30.421875 42.28125 30.421875 31.390625 
Q 30.421875 20.453125 26.78125 9.375 
Q 23.140625 -1.703125 15.828125 -13.1875 
L 8.015625 -13.1875 
Q 14.5 -2 17.703125 9.0625 
Q 20.90625 20.125 20.90625 31.390625 
Q 20.90625 42.671875 17.703125 53.65625 
Q 14.5 64.65625 8.015625 75.875 
z
" id="DejaVuSans-41"/>
      </defs>
      <use xlink:href="#DejaVuSans-68"/>
      <use x="77.001953" xlink:href="#DejaVuSans-101"/>
      <use x="138.525391" xlink:href="#DejaVuSans-115"/>
      <use x="190.625" xlink:href="#DejaVuSans-99"/>
      <use x="245.605469" xlink:href="#DejaVuSans-114"/>
      <use x="286.71875" xlink:href="#DejaVuSans-105"/>
      <use x="314.501953" xlink:href="#DejaVuSans-112"/>
      <use x="377.978516" xlink:href="#DejaVuSans-116"/>
      <use x="417.1875" xlink:href="#DejaVuSans-105"/>
      <use x="444.970703" xlink:href="#DejaVuSans-111"/>
      <use x="506.152344" xlink:href="#DejaVuSans-110"/>
      <use x="569.53125" xlink:href="#DejaVuSans-32"/>
      <use x="601.318359" xlink:href="#DejaVuSans-108"/>
      <use x="629.101562" xlink:href="#DejaVuSans-101"/>
      <use x="690.625" xlink:href="#DejaVuSans-110"/>
      <use x="754.003906" xlink:href="#DejaVuSans-103"/>
      <use x="817.480469" xlink:href="#DejaVuSans-116"/>
      <use x="856.689453" xlink:href="#DejaVuSans-104"/>
      <use x="920.068359" xlink:href="#DejaVuSans-32"/>
      <use x="951.855469" xlink:href="#DejaVuSans-40"/>
      <use x="990.869141" xlink:href="#DejaVuSans-105"/>
      <use x="1018.652344" xlink:href="#DejaVuSans-110"/>
      <use x="1082.03125" xlink:href="#DejaVuSans-32"/>
      <use x="1113.818359" xlink:href="#DejaVuSans-108"/>
      <use x="1141.601562" xlink:href="#DejaVuSans-111"/>
      <use x="1202.783203" xlink:href="#DejaVuSans-103"/>
      <use x="1266.259766" xlink:href="#DejaVuSans-45"/>
      <use x="1302.34375" xlink:href="#DejaVuSans-115"/>
      <use x="1354.443359" xlink:href="#DejaVuSans-99"/>
      <use x="1409.423828" xlink:href="#DejaVuSans-97"/>
      <use x="1470.703125" xlink:href="#DejaVuSans-108"/>
      <use x="1498.486328" xlink:href="#DejaVuSans-101"/>
      <use x="1560.009766" xlink:href="#DejaVuSans-41"/>
     </g>
    </g>
   </g>
   <g id="matplotlib.axis_2">
    <g id="ytick_1">
     <g id="line2d_8">
      <defs>
       <path d="M 0 0 
L -4.8 0 
" id="mf550ba5b1f" style="stroke:#000000;"/>
      </defs>
      <g>
       <use style="stroke:#000000;" x="67.481875" xlink:href="#mf550ba5b1f" y="295.61339"/>
      </g>
     </g>
     <g id="text_9">
      <!-- 0.1 -->
      <g transform="translate(30.55625 302.451984)scale(0.18 -0.18)">
       <use xlink:href="#DejaVuSans-48"/>
       <use x="63.623047" xlink:href="#DejaVuSans-46"/>
       <use x="95.410156" xlink:href="#DejaVuSans-49"/>
      </g>
     </g>
    </g>
    <g id="ytick_2">
     <g id="line2d_9">
      <g>
       <use style="stroke:#000000;" x="67.481875" xlink:href="#mf550ba5b1f" y="256.84815"/>
      </g>
     </g>
     <g id="text_10">
      <!-- 0.2 -->
      <g transform="translate(30.55625 263.686743)scale(0.18 -0.18)">
       <use xlink:href="#DejaVuSans-48"/>
       <use x="63.623047" xlink:href="#DejaVuSans-46"/>
       <use x="95.410156" xlink:href="#DejaVuSans-50"/>
      </g>
     </g>
    </g>
    <g id="ytick_3">
     <g id="line2d_10">
      <g>
       <use style="stroke:#000000;" x="67.481875" xlink:href="#mf550ba5b1f" y="218.082909"/>
      </g>
     </g>
     <g id="text_11">
      <!-- 0.3 -->
      <g transform="translate(30.55625 224.921503)scale(0.18 -0.18)">
       <use xlink:href="#DejaVuSans-48"/>
       <use x="63.623047" xlink:href="#DejaVuSans-46"/>
       <use x="95.410156" xlink:href="#DejaVuSans-51"/>
      </g>
     </g>
    </g>
    <g id="ytick_4">
     <g id="line2d_11">
      <g>
       <use style="stroke:#000000;" x="67.481875" xlink:href="#mf550ba5b1f" y="179.317668"/>
      </g>
     </g>
     <g id="text_12">
      <!-- 0.4 -->
      <g transform="translate(30.55625 186.156262)scale(0.18 -0.18)">
       <use xlink:href="#DejaVuSans-48"/>
       <use x="63.623047" xlink:href="#DejaVuSans-46"/>
       <use x="95.410156" xlink:href="#DejaVuSans-52"/>
      </g>
     </g>
    </g>
    <g id="ytick_5">
     <g id="line2d_12">
      <g>
       <use style="stroke:#000000;" x="67.481875" xlink:href="#mf550ba5b1f" y="140.552428"/>
      </g>
     </g>
     <g id="text_13">
      <!-- 0.5 -->
      <g transform="translate(30.55625 147.391022)scale(0.18 -0.18)">
       <use xlink:href="#DejaVuSans-48"/>
       <use x="63.623047" xlink:href="#DejaVuSans-46"/>
       <use x="95.410156" xlink:href="#DejaVuSans-53"/>
      </g>
     </g>
    </g>
    <g id="ytick_6">
     <g id="line2d_13">
      <g>
       <use style="stroke:#000000;" x="67.481875" xlink:href="#mf550ba5b1f" y="101.787187"/>
      </g>
     </g>
     <g id="text_14">
      <!-- 0.6 -->
      <g transform="translate(30.55625 108.625781)scale(0.18 -0.18)">
       <defs>
        <path d="M 33.015625 40.375 
Q 26.375 40.375 22.484375 35.828125 
Q 18.609375 31.296875 18.609375 23.390625 
Q 18.609375 15.53125 22.484375 10.953125 
Q 26.375 6.390625 33.015625 6.390625 
Q 39.65625 6.390625 43.53125 10.953125 
Q 47.40625 15.53125 47.40625 23.390625 
Q 47.40625 31.296875 43.53125 35.828125 
Q 39.65625 40.375 33.015625 40.375 
z
M 52.59375 71.296875 
L 52.59375 62.3125 
Q 48.875 64.0625 45.09375 64.984375 
Q 41.3125 65.921875 37.59375 65.921875 
Q 27.828125 65.921875 22.671875 59.328125 
Q 17.53125 52.734375 16.796875 39.40625 
Q 19.671875 43.65625 24.015625 45.921875 
Q 28.375 48.1875 33.59375 48.1875 
Q 44.578125 48.1875 50.953125 41.515625 
Q 57.328125 34.859375 57.328125 23.390625 
Q 57.328125 12.15625 50.6875 5.359375 
Q 44.046875 -1.421875 33.015625 -1.421875 
Q 20.359375 -1.421875 13.671875 8.265625 
Q 6.984375 17.96875 6.984375 36.375 
Q 6.984375 53.65625 15.1875 63.9375 
Q 23.390625 74.21875 37.203125 74.21875 
Q 40.921875 74.21875 44.703125 73.484375 
Q 48.484375 72.75 52.59375 71.296875 
z
" id="DejaVuSans-54"/>
       </defs>
       <use xlink:href="#DejaVuSans-48"/>
       <use x="63.623047" xlink:href="#DejaVuSans-46"/>
       <use x="95.410156" xlink:href="#DejaVuSans-54"/>
      </g>
     </g>
    </g>
    <g id="ytick_7">
     <g id="line2d_14">
      <g>
       <use style="stroke:#000000;" x="67.481875" xlink:href="#mf550ba5b1f" y="63.021947"/>
      </g>
     </g>
     <g id="text_15">
      <!-- 0.7 -->
      <g transform="translate(30.55625 69.86054)scale(0.18 -0.18)">
       <defs>
        <path d="M 8.203125 72.90625 
L 55.078125 72.90625 
L 55.078125 68.703125 
L 28.609375 0 
L 18.3125 0 
L 43.21875 64.59375 
L 8.203125 64.59375 
z
" id="DejaVuSans-55"/>
       </defs>
       <use xlink:href="#DejaVuSans-48"/>
       <use x="63.623047" xlink:href="#DejaVuSans-46"/>
       <use x="95.410156" xlink:href="#DejaVuSans-55"/>
      </g>
     </g>
    </g>
    <g id="ytick_8">
     <g id="line2d_15">
      <g>
       <use style="stroke:#000000;" x="67.481875" xlink:href="#mf550ba5b1f" y="24.256706"/>
      </g>
     </g>
     <g id="text_16">
      <!-- 0.8 -->
      <g transform="translate(30.55625 31.0953)scale(0.18 -0.18)">
       <defs>
        <path d="M 31.78125 34.625 
Q 24.75 34.625 20.71875 30.859375 
Q 16.703125 27.09375 16.703125 20.515625 
Q 16.703125 13.921875 20.71875 10.15625 
Q 24.75 6.390625 31.78125 6.390625 
Q 38.8125 6.390625 42.859375 10.171875 
Q 46.921875 13.96875 46.921875 20.515625 
Q 46.921875 27.09375 42.890625 30.859375 
Q 38.875 34.625 31.78125 34.625 
z
M 21.921875 38.8125 
Q 15.578125 40.375 12.03125 44.71875 
Q 8.5 49.078125 8.5 55.328125 
Q 8.5 64.0625 14.71875 69.140625 
Q 20.953125 74.21875 31.78125 74.21875 
Q 42.671875 74.21875 48.875 69.140625 
Q 55.078125 64.0625 55.078125 55.328125 
Q 55.078125 49.078125 51.53125 44.71875 
Q 48 40.375 41.703125 38.8125 
Q 48.828125 37.15625 52.796875 32.3125 
Q 56.78125 27.484375 56.78125 20.515625 
Q 56.78125 9.90625 50.3125 4.234375 
Q 43.84375 -1.421875 31.78125 -1.421875 
Q 19.734375 -1.421875 13.25 4.234375 
Q 6.78125 9.90625 6.78125 20.515625 
Q 6.78125 27.484375 10.78125 32.3125 
Q 14.796875 37.15625 21.921875 38.8125 
z
M 18.3125 54.390625 
Q 18.3125 48.734375 21.84375 45.5625 
Q 25.390625 42.390625 31.78125 42.390625 
Q 38.140625 42.390625 41.71875 45.5625 
Q 45.3125 48.734375 45.3125 54.390625 
Q 45.3125 60.0625 41.71875 63.234375 
Q 38.140625 66.40625 31.78125 66.40625 
Q 25.390625 66.40625 21.84375 63.234375 
Q 18.3125 60.0625 18.3125 54.390625 
z
" id="DejaVuSans-56"/>
       </defs>
       <use xlink:href="#DejaVuSans-48"/>
       <use x="63.623047" xlink:href="#DejaVuSans-46"/>
       <use x="95.410156" xlink:href="#DejaVuSans-56"/>
      </g>
     </g>
    </g>
    <g id="text_17">
     <!-- p(optimal choice) -->
     <g transform="translate(22.396875 239.708562)rotate(-90)scale(0.2 -0.2)">
      <defs>
       <path d="M 52 44.1875 
Q 55.375 50.25 60.0625 53.125 
Q 64.75 56 71.09375 56 
Q 79.640625 56 84.28125 50.015625 
Q 88.921875 44.046875 88.921875 33.015625 
L 88.921875 0 
L 79.890625 0 
L 79.890625 32.71875 
Q 79.890625 40.578125 77.09375 44.375 
Q 74.3125 48.1875 68.609375 48.1875 
Q 61.625 48.1875 57.5625 43.546875 
Q 53.515625 38.921875 53.515625 30.90625 
L 53.515625 0 
L 44.484375 0 
L 44.484375 32.71875 
Q 44.484375 40.625 41.703125 44.40625 
Q 38.921875 48.1875 33.109375 48.1875 
Q 26.21875 48.1875 22.15625 43.53125 
Q 18.109375 38.875 18.109375 30.90625 
L 18.109375 0 
L 9.078125 0 
L 9.078125 54.6875 
L 18.109375 54.6875 
L 18.109375 46.1875 
Q 21.1875 51.21875 25.484375 53.609375 
Q 29.78125 56 35.6875 56 
Q 41.65625 56 45.828125 52.96875 
Q 50 49.953125 52 44.1875 
z
" id="DejaVuSans-109"/>
      </defs>
      <use xlink:href="#DejaVuSans-112"/>
      <use x="63.476562" xlink:href="#DejaVuSans-40"/>
      <use x="102.490234" xlink:href="#DejaVuSans-111"/>
      <use x="163.671875" xlink:href="#DejaVuSans-112"/>
      <use x="227.148438" xlink:href="#DejaVuSans-116"/>
      <use x="266.357422" xlink:href="#DejaVuSans-105"/>
      <use x="294.140625" xlink:href="#DejaVuSans-109"/>
      <use x="391.552734" xlink:href="#DejaVuSans-97"/>
      <use x="452.832031" xlink:href="#DejaVuSans-108"/>
      <use x="480.615234" xlink:href="#DejaVuSans-32"/>
      <use x="512.402344" xlink:href="#DejaVuSans-99"/>
      <use x="567.382812" xlink:href="#DejaVuSans-104"/>
      <use x="630.761719" xlink:href="#DejaVuSans-111"/>
      <use x="691.943359" xlink:href="#DejaVuSans-105"/>
      <use x="719.726562" xlink:href="#DejaVuSans-99"/>
      <use x="774.707031" xlink:href="#DejaVuSans-101"/>
      <use x="836.230469" xlink:href="#DejaVuSans-41"/>
     </g>
    </g>
   </g>
   <g id="line2d_16">
    <path clip-path="url(#p2b659622f9)" d="M 116.885754 202.322439 
L 119.066502 202.014122 
L 121.24725 201.705806 
L 123.427998 201.397489 
L 125.608746 201.089172 
L 127.789493 200.780855 
L 129.970241 200.472539 
L 132.150989 200.164222 
L 134.331737 199.855905 
L 136.512485 199.547588 
L 138.693233 199.239271 
L 140.873981 198.930955 
L 143.054729 198.622638 
L 145.235477 198.314321 
L 147.416225 198.006004 
L 149.596973 197.697688 
L 151.777721 197.389371 
L 153.958468 197.081054 
L 156.139216 196.772737 
L 158.319964 196.464421 
L 160.500712 196.156104 
L 162.68146 195.847787 
L 164.862208 195.53947 
L 167.042956 195.231154 
L 169.223704 194.922837 
L 171.404452 194.61452 
L 173.5852 194.306203 
L 175.765948 193.997886 
L 177.946695 193.68957 
L 180.127443 193.381253 
L 182.308191 193.072936 
L 184.488939 192.764619 
L 186.669687 192.456303 
L 188.850435 192.147986 
L 191.031183 191.839669 
L 193.211931 191.531352 
L 195.392679 191.223036 
L 197.573427 190.914719 
L 199.754175 190.606402 
L 201.934923 190.298085 
L 204.11567 189.989769 
L 206.296418 189.681452 
L 208.477166 189.373135 
L 210.657914 189.064818 
L 212.838662 188.756501 
L 215.01941 188.448185 
L 217.200158 188.139868 
L 219.380906 187.831551 
L 221.561654 187.523234 
L 223.742402 187.214918 
L 225.92315 186.906601 
L 228.103898 186.598284 
L 230.284645 186.289967 
L 232.465393 185.981651 
L 234.646141 185.673334 
L 236.826889 185.365017 
L 239.007637 185.0567 
L 241.188385 184.748384 
L 243.369133 184.440067 
L 245.549881 184.13175 
L 247.730629 183.823433 
L 249.911377 183.515116 
L 252.092125 183.2068 
L 254.272873 182.898483 
L 256.45362 182.590166 
L 258.634368 182.281849 
L 260.815116 181.973533 
L 262.995864 181.665216 
L 265.176612 181.356899 
L 267.35736 181.048582 
L 269.538108 180.740266 
L 271.718856 180.431949 
L 273.899604 180.123632 
L 276.080352 179.815315 
L 278.2611 179.506999 
L 280.441847 179.198682 
L 282.622595 178.890365 
L 284.803343 178.582048 
L 286.984091 178.273731 
L 289.164839 177.965415 
L 291.345587 177.657098 
L 293.526335 177.348781 
L 295.707083 177.040464 
L 297.887831 176.732148 
L 300.068579 176.423831 
L 302.249327 176.115514 
L 304.430075 175.807197 
L 306.610822 175.498881 
L 308.79157 175.190564 
L 310.972318 174.882247 
L 313.153066 174.57393 
L 315.333814 174.265614 
L 317.514562 173.957297 
L 319.69531 173.64898 
L 321.876058 173.340663 
L 324.056806 173.032346 
L 326.237554 172.72403 
L 328.418302 172.415713 
L 330.59905 172.107396 
L 332.779797 171.799079 
" style="fill:none;stroke:#117733;stroke-linecap:square;stroke-width:1.8;"/>
   </g>
   <g id="patch_3">
    <path d="M 67.481875 297.164 
L 67.481875 7.2 
" style="fill:none;stroke:#000000;stroke-linecap:square;stroke-linejoin:miter;"/>
   </g>
   <g id="patch_4">
    <path d="M 67.481875 297.164 
L 341.414625 297.164 
" style="fill:none;stroke:#000000;stroke-linecap:square;stroke-linejoin:miter;"/>
   </g>
   <g id="text_18">
    <!-- $r=0.1, p&lt;.001$ -->
    <g transform="translate(84.602672 63.021947)scale(0.16 -0.16)">
     <defs>
      <path d="M 44.578125 46.390625 
Q 43.21875 47.125 41.453125 47.515625 
Q 39.703125 47.90625 37.703125 47.90625 
Q 30.515625 47.90625 25.140625 42.453125 
Q 19.78125 37.015625 18.015625 27.875 
L 12.5 0 
L 3.515625 0 
L 14.203125 54.6875 
L 23.1875 54.6875 
L 21.484375 46.1875 
Q 25.046875 50.921875 30 53.453125 
Q 34.96875 56 40.578125 56 
Q 42.046875 56 43.453125 55.828125 
Q 44.875 55.671875 46.296875 55.28125 
z
" id="DejaVuSans-Oblique-114"/>
      <path d="M 10.59375 45.40625 
L 73.1875 45.40625 
L 73.1875 37.203125 
L 10.59375 37.203125 
z
M 10.59375 25.484375 
L 73.1875 25.484375 
L 73.1875 17.1875 
L 10.59375 17.1875 
z
" id="DejaVuSans-61"/>
      <path d="M 11.71875 12.40625 
L 22.015625 12.40625 
L 22.015625 4 
L 14.015625 -11.625 
L 7.71875 -11.625 
L 11.71875 4 
z
" id="DejaVuSans-44"/>
      <path d="M 49.609375 33.6875 
Q 49.609375 40.875 46.484375 44.671875 
Q 43.359375 48.484375 37.5 48.484375 
Q 33.5 48.484375 29.859375 46.4375 
Q 26.21875 44.390625 23.390625 40.484375 
Q 20.609375 36.625 18.9375 31.15625 
Q 17.28125 25.6875 17.28125 20.3125 
Q 17.28125 13.484375 20.40625 9.796875 
Q 23.53125 6.109375 29.296875 6.109375 
Q 33.546875 6.109375 37.1875 8.109375 
Q 40.828125 10.109375 43.40625 13.921875 
Q 46.1875 17.921875 47.890625 23.34375 
Q 49.609375 28.765625 49.609375 33.6875 
z
M 21.78125 46.390625 
Q 25.390625 51.125 30.296875 53.5625 
Q 35.203125 56 41.21875 56 
Q 49.609375 56 54.25 50.5 
Q 58.890625 45.015625 58.890625 35.109375 
Q 58.890625 27 56 19.65625 
Q 53.125 12.3125 47.703125 6.5 
Q 44.09375 2.640625 39.546875 0.609375 
Q 35.015625 -1.421875 29.984375 -1.421875 
Q 24.171875 -1.421875 20.21875 1 
Q 16.265625 3.421875 14.3125 8.203125 
L 8.6875 -20.796875 
L -0.296875 -20.796875 
L 14.40625 54.6875 
L 23.390625 54.6875 
z
" id="DejaVuSans-Oblique-112"/>
      <path d="M 73.1875 49.21875 
L 22.796875 31.296875 
L 73.1875 13.484375 
L 73.1875 4.59375 
L 10.59375 27.296875 
L 10.59375 35.40625 
L 73.1875 58.109375 
z
" id="DejaVuSans-60"/>
     </defs>
     <use transform="translate(0 0.78125)" xlink:href="#DejaVuSans-Oblique-114"/>
     <use transform="translate(60.595703 0.78125)" xlink:href="#DejaVuSans-61"/>
     <use transform="translate(163.867188 0.78125)" xlink:href="#DejaVuSans-48"/>
     <use transform="translate(227.490234 0.78125)" xlink:href="#DejaVuSans-46"/>
     <use transform="translate(259.277344 0.78125)" xlink:href="#DejaVuSans-49"/>
     <use transform="translate(322.900391 0.78125)" xlink:href="#DejaVuSans-44"/>
     <use transform="translate(374.169922 0.78125)" xlink:href="#DejaVuSans-Oblique-112"/>
     <use transform="translate(457.128906 0.78125)" xlink:href="#DejaVuSans-60"/>
     <use transform="translate(560.400391 0.78125)" xlink:href="#DejaVuSans-46"/>
     <use transform="translate(611.669922 0.78125)" xlink:href="#DejaVuSans-48"/>
     <use transform="translate(675.292969 0.78125)" xlink:href="#DejaVuSans-48"/>
     <use transform="translate(738.916016 0.78125)" xlink:href="#DejaVuSans-49"/>
    </g>
   </g>
  </g>
 </g>
 <defs>
  <clipPath id="p2b659622f9">
   <rect height="289.964" width="273.93275" x="67.481875" y="7.2"/>
  </clipPath>
 </defs>
</svg>
