<?xml version="1.0" encoding="utf-8" standalone="no"?>
<!DOCTYPE svg PUBLIC "-//W3C//DTD SVG 1.1//EN"
  "http://www.w3.org/Graphics/SVG/1.1/DTD/svg11.dtd">
<!-- Created with matplotlib (https://matplotlib.org/) -->
<svg height="353.440875pt" version="1.1" viewBox="0 0 371.549812 353.440875" width="371.549812pt" xmlns="http://www.w3.org/2000/svg" xmlns:xlink="http://www.w3.org/1999/xlink">
 <metadata>
  <rdf:RDF xmlns:cc="http://creativecommons.org/ns#" xmlns:dc="http://purl.org/dc/elements/1.1/" xmlns:rdf="http://www.w3.org/1999/02/22-rdf-syntax-ns#">
   <cc:Work>
    <dc:type rdf:resource="http://purl.org/dc/dcmitype/StillImage"/>
    <dc:date>2023-07-11T15:29:14.796204</dc:date>
    <dc:format>image/svg+xml</dc:format>
    <dc:creator>
     <cc:Agent>
      <dc:title>Matplotlib v3.3.2, https://matplotlib.org/</dc:title>
     </cc:Agent>
    </dc:creator>
   </cc:Work>
  </rdf:RDF>
 </metadata>
 <defs>
  <style type="text/css">*{stroke-linecap:butt;stroke-linejoin:round;}</style>
 </defs>
 <g id="figure_1">
  <g id="patch_1">
   <path d="M 0 353.440875 
L 371.549812 353.440875 
L 371.549812 0 
L 0 0 
z
" style="fill:none;"/>
  </g>
  <g id="axes_1">
   <g id="patch_2">
    <path d="M 67.481875 297.164 
L 341.414625 297.164 
L 341.414625 7.2 
L 67.481875 7.2 
z
" style="fill:#ffffff;"/>
   </g>
   <g id="PathCollection_1">
    <defs>
     <path d="M 0 5 
C 1.326016 5 2.597899 4.473168 3.535534 3.535534 
C 4.473168 2.597899 5 1.326016 5 0 
C 5 -1.326016 4.473168 -2.597899 3.535534 -3.535534 
C 2.597899 -4.473168 1.326016 -5 0 -5 
C -1.326016 -5 -2.597899 -4.473168 -3.535534 -3.535534 
C -4.473168 -2.597899 -5 -1.326016 -5 0 
C -5 1.326016 -4.473168 2.597899 -3.535534 3.535534 
C -2.597899 4.473168 -1.326016 5 0 5 
z
" id="m7f54bb7dfb" style="stroke:#da9138;stroke-opacity:0.8;"/>
    </defs>
    <g clip-path="url(#paa651e0bc0)">
     <use style="fill:#da9138;fill-opacity:0.8;stroke:#da9138;stroke-opacity:0.8;" x="148.386033" xlink:href="#m7f54bb7dfb" y="210.760586"/>
     <use style="fill:#da9138;fill-opacity:0.8;stroke:#da9138;stroke-opacity:0.8;" x="302.752442" xlink:href="#m7f54bb7dfb" y="242.978808"/>
     <use style="fill:#da9138;fill-opacity:0.8;stroke:#da9138;stroke-opacity:0.8;" x="329.875354" xlink:href="#m7f54bb7dfb" y="231.263091"/>
     <use style="fill:#da9138;fill-opacity:0.8;stroke:#da9138;stroke-opacity:0.8;" x="302.416753" xlink:href="#m7f54bb7dfb" y="234.19202"/>
     <use style="fill:#da9138;fill-opacity:0.8;stroke:#da9138;stroke-opacity:0.8;" x="292.417464" xlink:href="#m7f54bb7dfb" y="225.405232"/>
     <use style="fill:#da9138;fill-opacity:0.8;stroke:#da9138;stroke-opacity:0.8;" x="283.900286" xlink:href="#m7f54bb7dfb" y="201.973798"/>
     <use style="fill:#da9138;fill-opacity:0.8;stroke:#da9138;stroke-opacity:0.8;" x="179.119742" xlink:href="#m7f54bb7dfb" y="210.760586"/>
     <use style="fill:#da9138;fill-opacity:0.8;stroke:#da9138;stroke-opacity:0.8;" x="314.171617" xlink:href="#m7f54bb7dfb" y="240.049879"/>
     <use style="fill:#da9138;fill-opacity:0.8;stroke:#da9138;stroke-opacity:0.8;" x="291.637101" xlink:href="#m7f54bb7dfb" y="187.329152"/>
     <use style="fill:#da9138;fill-opacity:0.8;stroke:#da9138;stroke-opacity:0.8;" x="306.181722" xlink:href="#m7f54bb7dfb" y="149.253071"/>
     <use style="fill:#da9138;fill-opacity:0.8;stroke:#da9138;stroke-opacity:0.8;" x="309.669653" xlink:href="#m7f54bb7dfb" y="190.258081"/>
     <use style="fill:#da9138;fill-opacity:0.8;stroke:#da9138;stroke-opacity:0.8;" x="310.830473" xlink:href="#m7f54bb7dfb" y="213.689515"/>
     <use style="fill:#da9138;fill-opacity:0.8;stroke:#da9138;stroke-opacity:0.8;" x="269.513389" xlink:href="#m7f54bb7dfb" y="204.902727"/>
     <use style="fill:#da9138;fill-opacity:0.8;stroke:#da9138;stroke-opacity:0.8;" x="280.715845" xlink:href="#m7f54bb7dfb" y="245.907737"/>
     <use style="fill:#da9138;fill-opacity:0.8;stroke:#da9138;stroke-opacity:0.8;" x="326.372232" xlink:href="#m7f54bb7dfb" y="240.049879"/>
     <use style="fill:#da9138;fill-opacity:0.8;stroke:#da9138;stroke-opacity:0.8;" x="153.350375" xlink:href="#m7f54bb7dfb" y="160.968788"/>
     <use style="fill:#da9138;fill-opacity:0.8;stroke:#da9138;stroke-opacity:0.8;" x="315.440179" xlink:href="#m7f54bb7dfb" y="190.258081"/>
     <use style="fill:#da9138;fill-opacity:0.8;stroke:#da9138;stroke-opacity:0.8;" x="116.885754" xlink:href="#m7f54bb7dfb" y="201.973798"/>
     <use style="fill:#da9138;fill-opacity:0.8;stroke:#da9138;stroke-opacity:0.8;" x="283.058499" xlink:href="#m7f54bb7dfb" y="196.115939"/>
     <use style="fill:#da9138;fill-opacity:0.8;stroke:#da9138;stroke-opacity:0.8;" x="324.325256" xlink:href="#m7f54bb7dfb" y="210.760586"/>
     <use style="fill:#da9138;fill-opacity:0.8;stroke:#da9138;stroke-opacity:0.8;" x="285.528751" xlink:href="#m7f54bb7dfb" y="260.552384"/>
     <use style="fill:#da9138;fill-opacity:0.8;stroke:#da9138;stroke-opacity:0.8;" x="326.899579" xlink:href="#m7f54bb7dfb" y="231.263091"/>
     <use style="fill:#da9138;fill-opacity:0.8;stroke:#da9138;stroke-opacity:0.8;" x="326.548847" xlink:href="#m7f54bb7dfb" y="216.618444"/>
     <use style="fill:#da9138;fill-opacity:0.8;stroke:#da9138;stroke-opacity:0.8;" x="210.286589" xlink:href="#m7f54bb7dfb" y="196.115939"/>
     <use style="fill:#da9138;fill-opacity:0.8;stroke:#da9138;stroke-opacity:0.8;" x="331.103486" xlink:href="#m7f54bb7dfb" y="199.044869"/>
     <use style="fill:#da9138;fill-opacity:0.8;stroke:#da9138;stroke-opacity:0.8;" x="283.058499" xlink:href="#m7f54bb7dfb" y="152.182"/>
     <use style="fill:#da9138;fill-opacity:0.8;stroke:#da9138;stroke-opacity:0.8;" x="326.855918" xlink:href="#m7f54bb7dfb" y="187.329152"/>
     <use style="fill:#da9138;fill-opacity:0.8;stroke:#da9138;stroke-opacity:0.8;" x="326.283609" xlink:href="#m7f54bb7dfb" y="193.18701"/>
     <use style="fill:#da9138;fill-opacity:0.8;stroke:#da9138;stroke-opacity:0.8;" x="316.781625" xlink:href="#m7f54bb7dfb" y="210.760586"/>
     <use style="fill:#da9138;fill-opacity:0.8;stroke:#da9138;stroke-opacity:0.8;" x="332.44301" xlink:href="#m7f54bb7dfb" y="137.537354"/>
     <use style="fill:#da9138;fill-opacity:0.8;stroke:#da9138;stroke-opacity:0.8;" x="280.866666" xlink:href="#m7f54bb7dfb" y="152.182"/>
     <use style="fill:#da9138;fill-opacity:0.8;stroke:#da9138;stroke-opacity:0.8;" x="302.50096" xlink:href="#m7f54bb7dfb" y="242.978808"/>
     <use style="fill:#da9138;fill-opacity:0.8;stroke:#da9138;stroke-opacity:0.8;" x="314.233016" xlink:href="#m7f54bb7dfb" y="204.902727"/>
     <use style="fill:#da9138;fill-opacity:0.8;stroke:#da9138;stroke-opacity:0.8;" x="247.986451" xlink:href="#m7f54bb7dfb" y="237.120949"/>
     <use style="fill:#da9138;fill-opacity:0.8;stroke:#da9138;stroke-opacity:0.8;" x="148.386033" xlink:href="#m7f54bb7dfb" y="178.542364"/>
     <use style="fill:#da9138;fill-opacity:0.8;stroke:#da9138;stroke-opacity:0.8;" x="303.741698" xlink:href="#m7f54bb7dfb" y="146.324141"/>
     <use style="fill:#da9138;fill-opacity:0.8;stroke:#da9138;stroke-opacity:0.8;" x="259.759384" xlink:href="#m7f54bb7dfb" y="222.476303"/>
     <use style="fill:#da9138;fill-opacity:0.8;stroke:#da9138;stroke-opacity:0.8;" x="280.715845" xlink:href="#m7f54bb7dfb" y="190.258081"/>
     <use style="fill:#da9138;fill-opacity:0.8;stroke:#da9138;stroke-opacity:0.8;" x="217.563852" xlink:href="#m7f54bb7dfb" y="119.963778"/>
     <use style="fill:#da9138;fill-opacity:0.8;stroke:#da9138;stroke-opacity:0.8;" x="277.066526" xlink:href="#m7f54bb7dfb" y="213.689515"/>
     <use style="fill:#da9138;fill-opacity:0.8;stroke:#da9138;stroke-opacity:0.8;" x="298.321331" xlink:href="#m7f54bb7dfb" y="187.329152"/>
     <use style="fill:#da9138;fill-opacity:0.8;stroke:#da9138;stroke-opacity:0.8;" x="310.083506" xlink:href="#m7f54bb7dfb" y="187.329152"/>
     <use style="fill:#da9138;fill-opacity:0.8;stroke:#da9138;stroke-opacity:0.8;" x="116.885754" xlink:href="#m7f54bb7dfb" y="234.19202"/>
     <use style="fill:#da9138;fill-opacity:0.8;stroke:#da9138;stroke-opacity:0.8;" x="231.802484" xlink:href="#m7f54bb7dfb" y="216.618444"/>
     <use style="fill:#da9138;fill-opacity:0.8;stroke:#da9138;stroke-opacity:0.8;" x="258.130919" xlink:href="#m7f54bb7dfb" y="181.471293"/>
     <use style="fill:#da9138;fill-opacity:0.8;stroke:#da9138;stroke-opacity:0.8;" x="310.083506" xlink:href="#m7f54bb7dfb" y="231.263091"/>
     <use style="fill:#da9138;fill-opacity:0.8;stroke:#da9138;stroke-opacity:0.8;" x="148.386033" xlink:href="#m7f54bb7dfb" y="114.105919"/>
     <use style="fill:#da9138;fill-opacity:0.8;stroke:#da9138;stroke-opacity:0.8;" x="274.118527" xlink:href="#m7f54bb7dfb" y="207.831657"/>
     <use style="fill:#da9138;fill-opacity:0.8;stroke:#da9138;stroke-opacity:0.8;" x="305.256097" xlink:href="#m7f54bb7dfb" y="201.973798"/>
     <use style="fill:#da9138;fill-opacity:0.8;stroke:#da9138;stroke-opacity:0.8;" x="298.321331" xlink:href="#m7f54bb7dfb" y="283.983818"/>
     <use style="fill:#da9138;fill-opacity:0.8;stroke:#da9138;stroke-opacity:0.8;" x="284.314139" xlink:href="#m7f54bb7dfb" y="190.258081"/>
     <use style="fill:#da9138;fill-opacity:0.8;stroke:#da9138;stroke-opacity:0.8;" x="298.509095" xlink:href="#m7f54bb7dfb" y="172.684505"/>
     <use style="fill:#da9138;fill-opacity:0.8;stroke:#da9138;stroke-opacity:0.8;" x="148.386033" xlink:href="#m7f54bb7dfb" y="181.471293"/>
     <use style="fill:#da9138;fill-opacity:0.8;stroke:#da9138;stroke-opacity:0.8;" x="311.956142" xlink:href="#m7f54bb7dfb" y="140.466283"/>
     <use style="fill:#da9138;fill-opacity:0.8;stroke:#da9138;stroke-opacity:0.8;" x="331.452572" xlink:href="#m7f54bb7dfb" y="160.968788"/>
     <use style="fill:#da9138;fill-opacity:0.8;stroke:#da9138;stroke-opacity:0.8;" x="148.386033" xlink:href="#m7f54bb7dfb" y="78.958768"/>
     <use style="fill:#da9138;fill-opacity:0.8;stroke:#da9138;stroke-opacity:0.8;" x="223.647158" xlink:href="#m7f54bb7dfb" y="64.314121"/>
     <use style="fill:#da9138;fill-opacity:0.8;stroke:#da9138;stroke-opacity:0.8;" x="303.741698" xlink:href="#m7f54bb7dfb" y="178.542364"/>
     <use style="fill:#da9138;fill-opacity:0.8;stroke:#da9138;stroke-opacity:0.8;" x="231.23488" xlink:href="#m7f54bb7dfb" y="87.745556"/>
     <use style="fill:#da9138;fill-opacity:0.8;stroke:#da9138;stroke-opacity:0.8;" x="299.250813" xlink:href="#m7f54bb7dfb" y="199.044869"/>
     <use style="fill:#da9138;fill-opacity:0.8;stroke:#da9138;stroke-opacity:0.8;" x="330.395325" xlink:href="#m7f54bb7dfb" y="219.547374"/>
     <use style="fill:#da9138;fill-opacity:0.8;stroke:#da9138;stroke-opacity:0.8;" x="328.978488" xlink:href="#m7f54bb7dfb" y="225.405232"/>
     <use style="fill:#da9138;fill-opacity:0.8;stroke:#da9138;stroke-opacity:0.8;" x="322.553431" xlink:href="#m7f54bb7dfb" y="169.755576"/>
     <use style="fill:#da9138;fill-opacity:0.8;stroke:#da9138;stroke-opacity:0.8;" x="323.85465" xlink:href="#m7f54bb7dfb" y="219.547374"/>
     <use style="fill:#da9138;fill-opacity:0.8;stroke:#da9138;stroke-opacity:0.8;" x="283.761306" xlink:href="#m7f54bb7dfb" y="128.750566"/>
     <use style="fill:#da9138;fill-opacity:0.8;stroke:#da9138;stroke-opacity:0.8;" x="269.717101" xlink:href="#m7f54bb7dfb" y="181.471293"/>
     <use style="fill:#da9138;fill-opacity:0.8;stroke:#da9138;stroke-opacity:0.8;" x="326.283609" xlink:href="#m7f54bb7dfb" y="155.110929"/>
     <use style="fill:#da9138;fill-opacity:0.8;stroke:#da9138;stroke-opacity:0.8;" x="223.647158" xlink:href="#m7f54bb7dfb" y="70.17198"/>
     <use style="fill:#da9138;fill-opacity:0.8;stroke:#da9138;stroke-opacity:0.8;" x="248.34916" xlink:href="#m7f54bb7dfb" y="160.968788"/>
     <use style="fill:#da9138;fill-opacity:0.8;stroke:#da9138;stroke-opacity:0.8;" x="211.278044" xlink:href="#m7f54bb7dfb" y="102.390202"/>
     <use style="fill:#da9138;fill-opacity:0.8;stroke:#da9138;stroke-opacity:0.8;" x="321.710146" xlink:href="#m7f54bb7dfb" y="181.471293"/>
     <use style="fill:#da9138;fill-opacity:0.8;stroke:#da9138;stroke-opacity:0.8;" x="310.083506" xlink:href="#m7f54bb7dfb" y="137.537354"/>
     <use style="fill:#da9138;fill-opacity:0.8;stroke:#da9138;stroke-opacity:0.8;" x="308.255896" xlink:href="#m7f54bb7dfb" y="131.679495"/>
     <use style="fill:#da9138;fill-opacity:0.8;stroke:#da9138;stroke-opacity:0.8;" x="179.119742" xlink:href="#m7f54bb7dfb" y="166.826646"/>
     <use style="fill:#da9138;fill-opacity:0.8;stroke:#da9138;stroke-opacity:0.8;" x="207.142971" xlink:href="#m7f54bb7dfb" y="96.532343"/>
     <use style="fill:#da9138;fill-opacity:0.8;stroke:#da9138;stroke-opacity:0.8;" x="332.555612" xlink:href="#m7f54bb7dfb" y="190.258081"/>
     <use style="fill:#da9138;fill-opacity:0.8;stroke:#da9138;stroke-opacity:0.8;" x="323.378011" xlink:href="#m7f54bb7dfb" y="122.892707"/>
     <use style="fill:#da9138;fill-opacity:0.8;stroke:#da9138;stroke-opacity:0.8;" x="116.885754" xlink:href="#m7f54bb7dfb" y="184.400222"/>
     <use style="fill:#da9138;fill-opacity:0.8;stroke:#da9138;stroke-opacity:0.8;" x="322.257981" xlink:href="#m7f54bb7dfb" y="199.044869"/>
     <use style="fill:#da9138;fill-opacity:0.8;stroke:#da9138;stroke-opacity:0.8;" x="326.548847" xlink:href="#m7f54bb7dfb" y="81.887697"/>
     <use style="fill:#da9138;fill-opacity:0.8;stroke:#da9138;stroke-opacity:0.8;" x="332.555612" xlink:href="#m7f54bb7dfb" y="175.613434"/>
     <use style="fill:#da9138;fill-opacity:0.8;stroke:#da9138;stroke-opacity:0.8;" x="283.058499" xlink:href="#m7f54bb7dfb" y="143.395212"/>
     <use style="fill:#da9138;fill-opacity:0.8;stroke:#da9138;stroke-opacity:0.8;" x="303.984953" xlink:href="#m7f54bb7dfb" y="190.258081"/>
     <use style="fill:#da9138;fill-opacity:0.8;stroke:#da9138;stroke-opacity:0.8;" x="321.154119" xlink:href="#m7f54bb7dfb" y="160.968788"/>
     <use style="fill:#da9138;fill-opacity:0.8;stroke:#da9138;stroke-opacity:0.8;" x="319.327496" xlink:href="#m7f54bb7dfb" y="187.329152"/>
     <use style="fill:#da9138;fill-opacity:0.8;stroke:#da9138;stroke-opacity:0.8;" x="231.23488" xlink:href="#m7f54bb7dfb" y="155.110929"/>
     <use style="fill:#da9138;fill-opacity:0.8;stroke:#da9138;stroke-opacity:0.8;" x="329.511065" xlink:href="#m7f54bb7dfb" y="134.608424"/>
     <use style="fill:#da9138;fill-opacity:0.8;stroke:#da9138;stroke-opacity:0.8;" x="299.250813" xlink:href="#m7f54bb7dfb" y="64.314121"/>
     <use style="fill:#da9138;fill-opacity:0.8;stroke:#da9138;stroke-opacity:0.8;" x="276.731593" xlink:href="#m7f54bb7dfb" y="58.456263"/>
     <use style="fill:#da9138;fill-opacity:0.8;stroke:#da9138;stroke-opacity:0.8;" x="222.217084" xlink:href="#m7f54bb7dfb" y="61.385192"/>
     <use style="fill:#da9138;fill-opacity:0.8;stroke:#da9138;stroke-opacity:0.8;" x="219.963222" xlink:href="#m7f54bb7dfb" y="64.314121"/>
     <use style="fill:#da9138;fill-opacity:0.8;stroke:#da9138;stroke-opacity:0.8;" x="329.10207" xlink:href="#m7f54bb7dfb" y="20.380182"/>
    </g>
   </g>
   <g id="PolyCollection_1">
    <path clip-path="url(#paa651e0bc0)" d="M 116.885754 113.344289 
L 116.885754 178.656749 
L 119.064237 178.582216 
L 121.242721 178.528762 
L 123.421204 178.475308 
L 125.599688 178.421855 
L 127.778171 178.368401 
L 129.956654 178.314947 
L 132.135138 178.261493 
L 134.313621 178.235394 
L 136.492105 178.264712 
L 138.670588 178.406714 
L 140.849071 178.520676 
L 143.027555 178.709766 
L 145.206038 178.898857 
L 147.384522 179.087948 
L 149.563005 179.277038 
L 151.741488 179.463442 
L 153.919972 179.555608 
L 156.098455 179.580042 
L 158.276939 179.599991 
L 160.455422 179.61994 
L 162.633906 179.639889 
L 164.812389 179.680842 
L 166.990872 179.793522 
L 169.169356 179.711125 
L 171.347839 179.719684 
L 173.526323 179.739633 
L 175.704806 179.795582 
L 177.883289 179.794762 
L 180.061773 179.802845 
L 182.240256 179.822509 
L 184.41874 179.842174 
L 186.597223 179.861838 
L 188.775707 179.883039 
L 190.95419 179.848247 
L 193.132673 179.779361 
L 195.311157 179.820583 
L 197.48964 179.807044 
L 199.668124 179.979674 
L 201.846607 180.00666 
L 204.02509 180.039894 
L 206.203574 180.124895 
L 208.382057 180.242788 
L 210.560541 180.36068 
L 212.739024 180.449482 
L 214.917507 180.46634 
L 217.095991 180.482072 
L 219.274474 180.593179 
L 221.452958 180.722496 
L 223.631441 180.774301 
L 225.809925 180.818539 
L 227.988408 180.969967 
L 230.166891 181.067651 
L 232.345375 181.164851 
L 234.523858 181.33608 
L 236.702342 181.473696 
L 238.880825 181.590934 
L 241.059308 181.837403 
L 243.237792 182.106149 
L 245.416275 182.327958 
L 247.594759 182.576644 
L 249.773242 182.823868 
L 251.951726 182.932784 
L 254.130209 183.174026 
L 256.308692 183.490009 
L 258.487176 183.682716 
L 260.665659 183.981231 
L 262.844143 184.281857 
L 265.022626 184.419058 
L 267.201109 184.68047 
L 269.379593 184.989671 
L 271.558076 185.288612 
L 273.73656 185.536315 
L 275.915043 185.829718 
L 278.093526 186.100397 
L 280.27201 186.33579 
L 282.450493 186.554178 
L 284.628977 187.088822 
L 286.80746 187.508862 
L 288.985944 187.884109 
L 291.164427 188.204043 
L 293.34291 188.546908 
L 295.521394 189.111206 
L 297.699877 189.686978 
L 299.878361 190.050073 
L 302.056844 190.38124 
L 304.235327 191.052385 
L 306.413811 191.556371 
L 308.592294 192.025262 
L 310.770778 192.392982 
L 312.949261 192.843825 
L 315.127744 193.401606 
L 317.306228 193.971456 
L 319.484711 194.687849 
L 321.663195 195.361497 
L 323.841678 195.823883 
L 326.020162 196.285572 
L 328.198645 197.185206 
L 330.377128 198.169866 
L 332.555612 198.992355 
L 332.555612 171.255592 
L 332.555612 171.255592 
L 330.377128 171.129554 
L 328.198645 171.101873 
L 326.020162 171.129456 
L 323.841678 171.16006 
L 321.663195 171.033013 
L 319.484711 170.814059 
L 317.306228 170.554139 
L 315.127744 170.310599 
L 312.949261 170.042689 
L 310.770778 169.921798 
L 308.592294 169.881179 
L 306.413811 169.477611 
L 304.235327 169.162603 
L 302.056844 168.877093 
L 299.878361 168.612428 
L 297.699877 168.20914 
L 295.521394 168.042436 
L 293.34291 167.75945 
L 291.164427 167.481653 
L 288.985944 166.945581 
L 286.80746 166.52426 
L 284.628977 166.232524 
L 282.450493 165.918164 
L 280.27201 165.488686 
L 278.093526 165.058115 
L 275.915043 164.699396 
L 273.73656 164.197691 
L 271.558076 163.764799 
L 269.379593 163.398499 
L 267.201109 163.011303 
L 265.022626 162.545063 
L 262.844143 162.085206 
L 260.665659 161.647442 
L 258.487176 161.209694 
L 256.308692 160.739119 
L 254.130209 160.148367 
L 251.951726 159.564554 
L 249.773242 158.787258 
L 247.594759 158.137637 
L 245.416275 157.494277 
L 243.237792 156.84171 
L 241.059308 156.194414 
L 238.880825 155.527617 
L 236.702342 154.893814 
L 234.523858 154.220889 
L 232.345375 153.380964 
L 230.166891 152.645685 
L 227.988408 151.931251 
L 225.809925 151.228046 
L 223.631441 150.45399 
L 221.452958 149.727254 
L 219.274474 149.001176 
L 217.095991 148.271979 
L 214.917507 147.346035 
L 212.739024 146.579096 
L 210.560541 145.810538 
L 208.382057 145.044225 
L 206.203574 144.282374 
L 204.02509 143.524389 
L 201.846607 142.947032 
L 199.668124 142.177792 
L 197.48964 141.500078 
L 195.311157 140.907528 
L 193.132673 140.288233 
L 190.95419 139.562154 
L 188.775707 138.836076 
L 186.597223 138.109997 
L 184.41874 137.383919 
L 182.240256 136.658081 
L 180.061773 135.934342 
L 177.883289 135.210604 
L 175.704806 134.486866 
L 173.526323 133.763127 
L 171.347839 133.026163 
L 169.169356 132.216614 
L 166.990872 131.407065 
L 164.812389 130.597516 
L 162.633906 129.785893 
L 160.455422 128.970829 
L 158.276939 128.155765 
L 156.098455 127.340701 
L 153.919972 126.526104 
L 151.741488 125.714894 
L 149.563005 124.903684 
L 147.384522 124.092475 
L 145.206038 123.281277 
L 143.027555 122.542369 
L 140.849071 121.803461 
L 138.670588 121.064553 
L 136.492105 120.325646 
L 134.313621 119.586738 
L 132.135138 118.84783 
L 129.956654 118.108922 
L 127.778171 117.370085 
L 125.599688 116.632401 
L 123.421204 115.864923 
L 121.242721 115.024711 
L 119.064237 114.1845 
L 116.885754 113.344289 
z
" style="fill:#117733;fill-opacity:0.15;"/>
   </g>
   <g id="matplotlib.axis_1">
    <g id="xtick_1">
     <g id="line2d_1">
      <defs>
       <path d="M 0 0 
L 0 4.8 
" id="m5bef4de817" style="stroke:#000000;"/>
      </defs>
      <g>
       <use style="stroke:#000000;" x="76.042273" xlink:href="#m5bef4de817" y="297.164"/>
      </g>
     </g>
     <g id="text_1">
      <!-- 1.0 -->
      <g transform="translate(61.729461 319.141187)scale(0.18 -0.18)">
       <defs>
        <path d="M 12.40625 8.296875 
L 28.515625 8.296875 
L 28.515625 63.921875 
L 10.984375 60.40625 
L 10.984375 69.390625 
L 28.421875 72.90625 
L 38.28125 72.90625 
L 38.28125 8.296875 
L 54.390625 8.296875 
L 54.390625 0 
L 12.40625 0 
z
" id="DejaVuSans-49"/>
        <path d="M 10.6875 12.40625 
L 21 12.40625 
L 21 0 
L 10.6875 0 
z
" id="DejaVuSans-46"/>
        <path d="M 31.78125 66.40625 
Q 24.171875 66.40625 20.328125 58.90625 
Q 16.5 51.421875 16.5 36.375 
Q 16.5 21.390625 20.328125 13.890625 
Q 24.171875 6.390625 31.78125 6.390625 
Q 39.453125 6.390625 43.28125 13.890625 
Q 47.125 21.390625 47.125 36.375 
Q 47.125 51.421875 43.28125 58.90625 
Q 39.453125 66.40625 31.78125 66.40625 
z
M 31.78125 74.21875 
Q 44.046875 74.21875 50.515625 64.515625 
Q 56.984375 54.828125 56.984375 36.375 
Q 56.984375 17.96875 50.515625 8.265625 
Q 44.046875 -1.421875 31.78125 -1.421875 
Q 19.53125 -1.421875 13.0625 8.265625 
Q 6.59375 17.96875 6.59375 36.375 
Q 6.59375 54.828125 13.0625 64.515625 
Q 19.53125 74.21875 31.78125 74.21875 
z
" id="DejaVuSans-48"/>
       </defs>
       <use xlink:href="#DejaVuSans-49"/>
       <use x="63.623047" xlink:href="#DejaVuSans-46"/>
       <use x="95.410156" xlink:href="#DejaVuSans-48"/>
      </g>
     </g>
    </g>
    <g id="xtick_2">
     <g id="line2d_2">
      <g>
       <use style="stroke:#000000;" x="118.844266" xlink:href="#m5bef4de817" y="297.164"/>
      </g>
     </g>
     <g id="text_2">
      <!-- 1.5 -->
      <g transform="translate(104.531453 319.141187)scale(0.18 -0.18)">
       <defs>
        <path d="M 10.796875 72.90625 
L 49.515625 72.90625 
L 49.515625 64.59375 
L 19.828125 64.59375 
L 19.828125 46.734375 
Q 21.96875 47.46875 24.109375 47.828125 
Q 26.265625 48.1875 28.421875 48.1875 
Q 40.625 48.1875 47.75 41.5 
Q 54.890625 34.8125 54.890625 23.390625 
Q 54.890625 11.625 47.5625 5.09375 
Q 40.234375 -1.421875 26.90625 -1.421875 
Q 22.3125 -1.421875 17.546875 -0.640625 
Q 12.796875 0.140625 7.71875 1.703125 
L 7.71875 11.625 
Q 12.109375 9.234375 16.796875 8.0625 
Q 21.484375 6.890625 26.703125 6.890625 
Q 35.15625 6.890625 40.078125 11.328125 
Q 45.015625 15.765625 45.015625 23.390625 
Q 45.015625 31 40.078125 35.4375 
Q 35.15625 39.890625 26.703125 39.890625 
Q 22.75 39.890625 18.8125 39.015625 
Q 14.890625 38.140625 10.796875 36.28125 
z
" id="DejaVuSans-53"/>
       </defs>
       <use xlink:href="#DejaVuSans-49"/>
       <use x="63.623047" xlink:href="#DejaVuSans-46"/>
       <use x="95.410156" xlink:href="#DejaVuSans-53"/>
      </g>
     </g>
    </g>
    <g id="xtick_3">
     <g id="line2d_3">
      <g>
       <use style="stroke:#000000;" x="161.646258" xlink:href="#m5bef4de817" y="297.164"/>
      </g>
     </g>
     <g id="text_3">
      <!-- 2.0 -->
      <g transform="translate(147.333445 319.141187)scale(0.18 -0.18)">
       <defs>
        <path d="M 19.1875 8.296875 
L 53.609375 8.296875 
L 53.609375 0 
L 7.328125 0 
L 7.328125 8.296875 
Q 12.9375 14.109375 22.625 23.890625 
Q 32.328125 33.6875 34.8125 36.53125 
Q 39.546875 41.84375 41.421875 45.53125 
Q 43.3125 49.21875 43.3125 52.78125 
Q 43.3125 58.59375 39.234375 62.25 
Q 35.15625 65.921875 28.609375 65.921875 
Q 23.96875 65.921875 18.8125 64.3125 
Q 13.671875 62.703125 7.8125 59.421875 
L 7.8125 69.390625 
Q 13.765625 71.78125 18.9375 73 
Q 24.125 74.21875 28.421875 74.21875 
Q 39.75 74.21875 46.484375 68.546875 
Q 53.21875 62.890625 53.21875 53.421875 
Q 53.21875 48.921875 51.53125 44.890625 
Q 49.859375 40.875 45.40625 35.40625 
Q 44.1875 33.984375 37.640625 27.21875 
Q 31.109375 20.453125 19.1875 8.296875 
z
" id="DejaVuSans-50"/>
       </defs>
       <use xlink:href="#DejaVuSans-50"/>
       <use x="63.623047" xlink:href="#DejaVuSans-46"/>
       <use x="95.410156" xlink:href="#DejaVuSans-48"/>
      </g>
     </g>
    </g>
    <g id="xtick_4">
     <g id="line2d_4">
      <g>
       <use style="stroke:#000000;" x="204.44825" xlink:href="#m5bef4de817" y="297.164"/>
      </g>
     </g>
     <g id="text_4">
      <!-- 2.5 -->
      <g transform="translate(190.135437 319.141187)scale(0.18 -0.18)">
       <use xlink:href="#DejaVuSans-50"/>
       <use x="63.623047" xlink:href="#DejaVuSans-46"/>
       <use x="95.410156" xlink:href="#DejaVuSans-53"/>
      </g>
     </g>
    </g>
    <g id="xtick_5">
     <g id="line2d_5">
      <g>
       <use style="stroke:#000000;" x="247.250242" xlink:href="#m5bef4de817" y="297.164"/>
      </g>
     </g>
     <g id="text_5">
      <!-- 3.0 -->
      <g transform="translate(232.93743 319.141187)scale(0.18 -0.18)">
       <defs>
        <path d="M 40.578125 39.3125 
Q 47.65625 37.796875 51.625 33 
Q 55.609375 28.21875 55.609375 21.1875 
Q 55.609375 10.40625 48.1875 4.484375 
Q 40.765625 -1.421875 27.09375 -1.421875 
Q 22.515625 -1.421875 17.65625 -0.515625 
Q 12.796875 0.390625 7.625 2.203125 
L 7.625 11.71875 
Q 11.71875 9.328125 16.59375 8.109375 
Q 21.484375 6.890625 26.8125 6.890625 
Q 36.078125 6.890625 40.9375 10.546875 
Q 45.796875 14.203125 45.796875 21.1875 
Q 45.796875 27.640625 41.28125 31.265625 
Q 36.765625 34.90625 28.71875 34.90625 
L 20.21875 34.90625 
L 20.21875 43.015625 
L 29.109375 43.015625 
Q 36.375 43.015625 40.234375 45.921875 
Q 44.09375 48.828125 44.09375 54.296875 
Q 44.09375 59.90625 40.109375 62.90625 
Q 36.140625 65.921875 28.71875 65.921875 
Q 24.65625 65.921875 20.015625 65.03125 
Q 15.375 64.15625 9.8125 62.3125 
L 9.8125 71.09375 
Q 15.4375 72.65625 20.34375 73.4375 
Q 25.25 74.21875 29.59375 74.21875 
Q 40.828125 74.21875 47.359375 69.109375 
Q 53.90625 64.015625 53.90625 55.328125 
Q 53.90625 49.265625 50.4375 45.09375 
Q 46.96875 40.921875 40.578125 39.3125 
z
" id="DejaVuSans-51"/>
       </defs>
       <use xlink:href="#DejaVuSans-51"/>
       <use x="63.623047" xlink:href="#DejaVuSans-46"/>
       <use x="95.410156" xlink:href="#DejaVuSans-48"/>
      </g>
     </g>
    </g>
    <g id="xtick_6">
     <g id="line2d_6">
      <g>
       <use style="stroke:#000000;" x="290.052234" xlink:href="#m5bef4de817" y="297.164"/>
      </g>
     </g>
     <g id="text_6">
      <!-- 3.5 -->
      <g transform="translate(275.739422 319.141187)scale(0.18 -0.18)">
       <use xlink:href="#DejaVuSans-51"/>
       <use x="63.623047" xlink:href="#DejaVuSans-46"/>
       <use x="95.410156" xlink:href="#DejaVuSans-53"/>
      </g>
     </g>
    </g>
    <g id="xtick_7">
     <g id="line2d_7">
      <g>
       <use style="stroke:#000000;" x="332.854227" xlink:href="#m5bef4de817" y="297.164"/>
      </g>
     </g>
     <g id="text_7">
      <!-- 4.0 -->
      <g transform="translate(318.541414 319.141187)scale(0.18 -0.18)">
       <defs>
        <path d="M 37.796875 64.3125 
L 12.890625 25.390625 
L 37.796875 25.390625 
z
M 35.203125 72.90625 
L 47.609375 72.90625 
L 47.609375 25.390625 
L 58.015625 25.390625 
L 58.015625 17.1875 
L 47.609375 17.1875 
L 47.609375 0 
L 37.796875 0 
L 37.796875 17.1875 
L 4.890625 17.1875 
L 4.890625 26.703125 
z
" id="DejaVuSans-52"/>
       </defs>
       <use xlink:href="#DejaVuSans-52"/>
       <use x="63.623047" xlink:href="#DejaVuSans-46"/>
       <use x="95.410156" xlink:href="#DejaVuSans-48"/>
      </g>
     </g>
    </g>
    <g id="text_8">
     <!-- Description length (in log-scale) -->
     <g transform="translate(44.546687 342.0815)scale(0.2 -0.2)">
      <defs>
       <path d="M 19.671875 64.796875 
L 19.671875 8.109375 
L 31.59375 8.109375 
Q 46.6875 8.109375 53.6875 14.9375 
Q 60.6875 21.78125 60.6875 36.53125 
Q 60.6875 51.171875 53.6875 57.984375 
Q 46.6875 64.796875 31.59375 64.796875 
z
M 9.8125 72.90625 
L 30.078125 72.90625 
Q 51.265625 72.90625 61.171875 64.09375 
Q 71.09375 55.28125 71.09375 36.53125 
Q 71.09375 17.671875 61.125 8.828125 
Q 51.171875 0 30.078125 0 
L 9.8125 0 
z
" id="DejaVuSans-68"/>
       <path d="M 56.203125 29.59375 
L 56.203125 25.203125 
L 14.890625 25.203125 
Q 15.484375 15.921875 20.484375 11.0625 
Q 25.484375 6.203125 34.421875 6.203125 
Q 39.59375 6.203125 44.453125 7.46875 
Q 49.3125 8.734375 54.109375 11.28125 
L 54.109375 2.78125 
Q 49.265625 0.734375 44.1875 -0.34375 
Q 39.109375 -1.421875 33.890625 -1.421875 
Q 20.796875 -1.421875 13.15625 6.1875 
Q 5.515625 13.8125 5.515625 26.8125 
Q 5.515625 40.234375 12.765625 48.109375 
Q 20.015625 56 32.328125 56 
Q 43.359375 56 49.78125 48.890625 
Q 56.203125 41.796875 56.203125 29.59375 
z
M 47.21875 32.234375 
Q 47.125 39.59375 43.09375 43.984375 
Q 39.0625 48.390625 32.421875 48.390625 
Q 24.90625 48.390625 20.390625 44.140625 
Q 15.875 39.890625 15.1875 32.171875 
z
" id="DejaVuSans-101"/>
       <path d="M 44.28125 53.078125 
L 44.28125 44.578125 
Q 40.484375 46.53125 36.375 47.5 
Q 32.28125 48.484375 27.875 48.484375 
Q 21.1875 48.484375 17.84375 46.4375 
Q 14.5 44.390625 14.5 40.28125 
Q 14.5 37.15625 16.890625 35.375 
Q 19.28125 33.59375 26.515625 31.984375 
L 29.59375 31.296875 
Q 39.15625 29.25 43.1875 25.515625 
Q 47.21875 21.78125 47.21875 15.09375 
Q 47.21875 7.46875 41.1875 3.015625 
Q 35.15625 -1.421875 24.609375 -1.421875 
Q 20.21875 -1.421875 15.453125 -0.5625 
Q 10.6875 0.296875 5.421875 2 
L 5.421875 11.28125 
Q 10.40625 8.6875 15.234375 7.390625 
Q 20.0625 6.109375 24.8125 6.109375 
Q 31.15625 6.109375 34.5625 8.28125 
Q 37.984375 10.453125 37.984375 14.40625 
Q 37.984375 18.0625 35.515625 20.015625 
Q 33.0625 21.96875 24.703125 23.78125 
L 21.578125 24.515625 
Q 13.234375 26.265625 9.515625 29.90625 
Q 5.8125 33.546875 5.8125 39.890625 
Q 5.8125 47.609375 11.28125 51.796875 
Q 16.75 56 26.8125 56 
Q 31.78125 56 36.171875 55.265625 
Q 40.578125 54.546875 44.28125 53.078125 
z
" id="DejaVuSans-115"/>
       <path d="M 48.78125 52.59375 
L 48.78125 44.1875 
Q 44.96875 46.296875 41.140625 47.34375 
Q 37.3125 48.390625 33.40625 48.390625 
Q 24.65625 48.390625 19.8125 42.84375 
Q 14.984375 37.3125 14.984375 27.296875 
Q 14.984375 17.28125 19.8125 11.734375 
Q 24.65625 6.203125 33.40625 6.203125 
Q 37.3125 6.203125 41.140625 7.25 
Q 44.96875 8.296875 48.78125 10.40625 
L 48.78125 2.09375 
Q 45.015625 0.34375 40.984375 -0.53125 
Q 36.96875 -1.421875 32.421875 -1.421875 
Q 20.0625 -1.421875 12.78125 6.34375 
Q 5.515625 14.109375 5.515625 27.296875 
Q 5.515625 40.671875 12.859375 48.328125 
Q 20.21875 56 33.015625 56 
Q 37.15625 56 41.109375 55.140625 
Q 45.0625 54.296875 48.78125 52.59375 
z
" id="DejaVuSans-99"/>
       <path d="M 41.109375 46.296875 
Q 39.59375 47.171875 37.8125 47.578125 
Q 36.03125 48 33.890625 48 
Q 26.265625 48 22.1875 43.046875 
Q 18.109375 38.09375 18.109375 28.8125 
L 18.109375 0 
L 9.078125 0 
L 9.078125 54.6875 
L 18.109375 54.6875 
L 18.109375 46.1875 
Q 20.953125 51.171875 25.484375 53.578125 
Q 30.03125 56 36.53125 56 
Q 37.453125 56 38.578125 55.875 
Q 39.703125 55.765625 41.0625 55.515625 
z
" id="DejaVuSans-114"/>
       <path d="M 9.421875 54.6875 
L 18.40625 54.6875 
L 18.40625 0 
L 9.421875 0 
z
M 9.421875 75.984375 
L 18.40625 75.984375 
L 18.40625 64.59375 
L 9.421875 64.59375 
z
" id="DejaVuSans-105"/>
       <path d="M 18.109375 8.203125 
L 18.109375 -20.796875 
L 9.078125 -20.796875 
L 9.078125 54.6875 
L 18.109375 54.6875 
L 18.109375 46.390625 
Q 20.953125 51.265625 25.265625 53.625 
Q 29.59375 56 35.59375 56 
Q 45.5625 56 51.78125 48.09375 
Q 58.015625 40.1875 58.015625 27.296875 
Q 58.015625 14.40625 51.78125 6.484375 
Q 45.5625 -1.421875 35.59375 -1.421875 
Q 29.59375 -1.421875 25.265625 0.953125 
Q 20.953125 3.328125 18.109375 8.203125 
z
M 48.6875 27.296875 
Q 48.6875 37.203125 44.609375 42.84375 
Q 40.53125 48.484375 33.40625 48.484375 
Q 26.265625 48.484375 22.1875 42.84375 
Q 18.109375 37.203125 18.109375 27.296875 
Q 18.109375 17.390625 22.1875 11.75 
Q 26.265625 6.109375 33.40625 6.109375 
Q 40.53125 6.109375 44.609375 11.75 
Q 48.6875 17.390625 48.6875 27.296875 
z
" id="DejaVuSans-112"/>
       <path d="M 18.3125 70.21875 
L 18.3125 54.6875 
L 36.8125 54.6875 
L 36.8125 47.703125 
L 18.3125 47.703125 
L 18.3125 18.015625 
Q 18.3125 11.328125 20.140625 9.421875 
Q 21.96875 7.515625 27.59375 7.515625 
L 36.8125 7.515625 
L 36.8125 0 
L 27.59375 0 
Q 17.1875 0 13.234375 3.875 
Q 9.28125 7.765625 9.28125 18.015625 
L 9.28125 47.703125 
L 2.6875 47.703125 
L 2.6875 54.6875 
L 9.28125 54.6875 
L 9.28125 70.21875 
z
" id="DejaVuSans-116"/>
       <path d="M 30.609375 48.390625 
Q 23.390625 48.390625 19.1875 42.75 
Q 14.984375 37.109375 14.984375 27.296875 
Q 14.984375 17.484375 19.15625 11.84375 
Q 23.34375 6.203125 30.609375 6.203125 
Q 37.796875 6.203125 41.984375 11.859375 
Q 46.1875 17.53125 46.1875 27.296875 
Q 46.1875 37.015625 41.984375 42.703125 
Q 37.796875 48.390625 30.609375 48.390625 
z
M 30.609375 56 
Q 42.328125 56 49.015625 48.375 
Q 55.71875 40.765625 55.71875 27.296875 
Q 55.71875 13.875 49.015625 6.21875 
Q 42.328125 -1.421875 30.609375 -1.421875 
Q 18.84375 -1.421875 12.171875 6.21875 
Q 5.515625 13.875 5.515625 27.296875 
Q 5.515625 40.765625 12.171875 48.375 
Q 18.84375 56 30.609375 56 
z
" id="DejaVuSans-111"/>
       <path d="M 54.890625 33.015625 
L 54.890625 0 
L 45.90625 0 
L 45.90625 32.71875 
Q 45.90625 40.484375 42.875 44.328125 
Q 39.84375 48.1875 33.796875 48.1875 
Q 26.515625 48.1875 22.3125 43.546875 
Q 18.109375 38.921875 18.109375 30.90625 
L 18.109375 0 
L 9.078125 0 
L 9.078125 54.6875 
L 18.109375 54.6875 
L 18.109375 46.1875 
Q 21.34375 51.125 25.703125 53.5625 
Q 30.078125 56 35.796875 56 
Q 45.21875 56 50.046875 50.171875 
Q 54.890625 44.34375 54.890625 33.015625 
z
" id="DejaVuSans-110"/>
       <path id="DejaVuSans-32"/>
       <path d="M 9.421875 75.984375 
L 18.40625 75.984375 
L 18.40625 0 
L 9.421875 0 
z
" id="DejaVuSans-108"/>
       <path d="M 45.40625 27.984375 
Q 45.40625 37.75 41.375 43.109375 
Q 37.359375 48.484375 30.078125 48.484375 
Q 22.859375 48.484375 18.828125 43.109375 
Q 14.796875 37.75 14.796875 27.984375 
Q 14.796875 18.265625 18.828125 12.890625 
Q 22.859375 7.515625 30.078125 7.515625 
Q 37.359375 7.515625 41.375 12.890625 
Q 45.40625 18.265625 45.40625 27.984375 
z
M 54.390625 6.78125 
Q 54.390625 -7.171875 48.1875 -13.984375 
Q 42 -20.796875 29.203125 -20.796875 
Q 24.46875 -20.796875 20.265625 -20.09375 
Q 16.0625 -19.390625 12.109375 -17.921875 
L 12.109375 -9.1875 
Q 16.0625 -11.328125 19.921875 -12.34375 
Q 23.78125 -13.375 27.78125 -13.375 
Q 36.625 -13.375 41.015625 -8.765625 
Q 45.40625 -4.15625 45.40625 5.171875 
L 45.40625 9.625 
Q 42.625 4.78125 38.28125 2.390625 
Q 33.9375 0 27.875 0 
Q 17.828125 0 11.671875 7.65625 
Q 5.515625 15.328125 5.515625 27.984375 
Q 5.515625 40.671875 11.671875 48.328125 
Q 17.828125 56 27.875 56 
Q 33.9375 56 38.28125 53.609375 
Q 42.625 51.21875 45.40625 46.390625 
L 45.40625 54.6875 
L 54.390625 54.6875 
z
" id="DejaVuSans-103"/>
       <path d="M 54.890625 33.015625 
L 54.890625 0 
L 45.90625 0 
L 45.90625 32.71875 
Q 45.90625 40.484375 42.875 44.328125 
Q 39.84375 48.1875 33.796875 48.1875 
Q 26.515625 48.1875 22.3125 43.546875 
Q 18.109375 38.921875 18.109375 30.90625 
L 18.109375 0 
L 9.078125 0 
L 9.078125 75.984375 
L 18.109375 75.984375 
L 18.109375 46.1875 
Q 21.34375 51.125 25.703125 53.5625 
Q 30.078125 56 35.796875 56 
Q 45.21875 56 50.046875 50.171875 
Q 54.890625 44.34375 54.890625 33.015625 
z
" id="DejaVuSans-104"/>
       <path d="M 31 75.875 
Q 24.46875 64.65625 21.28125 53.65625 
Q 18.109375 42.671875 18.109375 31.390625 
Q 18.109375 20.125 21.3125 9.0625 
Q 24.515625 -2 31 -13.1875 
L 23.1875 -13.1875 
Q 15.875 -1.703125 12.234375 9.375 
Q 8.59375 20.453125 8.59375 31.390625 
Q 8.59375 42.28125 12.203125 53.3125 
Q 15.828125 64.359375 23.1875 75.875 
z
" id="DejaVuSans-40"/>
       <path d="M 4.890625 31.390625 
L 31.203125 31.390625 
L 31.203125 23.390625 
L 4.890625 23.390625 
z
" id="DejaVuSans-45"/>
       <path d="M 34.28125 27.484375 
Q 23.390625 27.484375 19.1875 25 
Q 14.984375 22.515625 14.984375 16.5 
Q 14.984375 11.71875 18.140625 8.90625 
Q 21.296875 6.109375 26.703125 6.109375 
Q 34.1875 6.109375 38.703125 11.40625 
Q 43.21875 16.703125 43.21875 25.484375 
L 43.21875 27.484375 
z
M 52.203125 31.203125 
L 52.203125 0 
L 43.21875 0 
L 43.21875 8.296875 
Q 40.140625 3.328125 35.546875 0.953125 
Q 30.953125 -1.421875 24.3125 -1.421875 
Q 15.921875 -1.421875 10.953125 3.296875 
Q 6 8.015625 6 15.921875 
Q 6 25.140625 12.171875 29.828125 
Q 18.359375 34.515625 30.609375 34.515625 
L 43.21875 34.515625 
L 43.21875 35.40625 
Q 43.21875 41.609375 39.140625 45 
Q 35.0625 48.390625 27.6875 48.390625 
Q 23 48.390625 18.546875 47.265625 
Q 14.109375 46.140625 10.015625 43.890625 
L 10.015625 52.203125 
Q 14.9375 54.109375 19.578125 55.046875 
Q 24.21875 56 28.609375 56 
Q 40.484375 56 46.34375 49.84375 
Q 52.203125 43.703125 52.203125 31.203125 
z
" id="DejaVuSans-97"/>
       <path d="M 8.015625 75.875 
L 15.828125 75.875 
Q 23.140625 64.359375 26.78125 53.3125 
Q 30.421875 42.28125 30.421875 31.390625 
Q 30.421875 20.453125 26.78125 9.375 
Q 23.140625 -1.703125 15.828125 -13.1875 
L 8.015625 -13.1875 
Q 14.5 -2 17.703125 9.0625 
Q 20.90625 20.125 20.90625 31.390625 
Q 20.90625 42.671875 17.703125 53.65625 
Q 14.5 64.65625 8.015625 75.875 
z
" id="DejaVuSans-41"/>
      </defs>
      <use xlink:href="#DejaVuSans-68"/>
      <use x="77.001953" xlink:href="#DejaVuSans-101"/>
      <use x="138.525391" xlink:href="#DejaVuSans-115"/>
      <use x="190.625" xlink:href="#DejaVuSans-99"/>
      <use x="245.605469" xlink:href="#DejaVuSans-114"/>
      <use x="286.71875" xlink:href="#DejaVuSans-105"/>
      <use x="314.501953" xlink:href="#DejaVuSans-112"/>
      <use x="377.978516" xlink:href="#DejaVuSans-116"/>
      <use x="417.1875" xlink:href="#DejaVuSans-105"/>
      <use x="444.970703" xlink:href="#DejaVuSans-111"/>
      <use x="506.152344" xlink:href="#DejaVuSans-110"/>
      <use x="569.53125" xlink:href="#DejaVuSans-32"/>
      <use x="601.318359" xlink:href="#DejaVuSans-108"/>
      <use x="629.101562" xlink:href="#DejaVuSans-101"/>
      <use x="690.625" xlink:href="#DejaVuSans-110"/>
      <use x="754.003906" xlink:href="#DejaVuSans-103"/>
      <use x="817.480469" xlink:href="#DejaVuSans-116"/>
      <use x="856.689453" xlink:href="#DejaVuSans-104"/>
      <use x="920.068359" xlink:href="#DejaVuSans-32"/>
      <use x="951.855469" xlink:href="#DejaVuSans-40"/>
      <use x="990.869141" xlink:href="#DejaVuSans-105"/>
      <use x="1018.652344" xlink:href="#DejaVuSans-110"/>
      <use x="1082.03125" xlink:href="#DejaVuSans-32"/>
      <use x="1113.818359" xlink:href="#DejaVuSans-108"/>
      <use x="1141.601562" xlink:href="#DejaVuSans-111"/>
      <use x="1202.783203" xlink:href="#DejaVuSans-103"/>
      <use x="1266.259766" xlink:href="#DejaVuSans-45"/>
      <use x="1302.34375" xlink:href="#DejaVuSans-115"/>
      <use x="1354.443359" xlink:href="#DejaVuSans-99"/>
      <use x="1409.423828" xlink:href="#DejaVuSans-97"/>
      <use x="1470.703125" xlink:href="#DejaVuSans-108"/>
      <use x="1498.486328" xlink:href="#DejaVuSans-101"/>
      <use x="1560.009766" xlink:href="#DejaVuSans-41"/>
     </g>
    </g>
   </g>
   <g id="matplotlib.axis_2">
    <g id="ytick_1">
     <g id="line2d_8">
      <defs>
       <path d="M 0 0 
L -4.8 0 
" id="m357748cffc" style="stroke:#000000;"/>
      </defs>
      <g>
       <use style="stroke:#000000;" x="67.481875" xlink:href="#m357748cffc" y="240.049879"/>
      </g>
     </g>
     <g id="text_9">
      <!-- 0.2 -->
      <g transform="translate(30.55625 246.888473)scale(0.18 -0.18)">
       <use xlink:href="#DejaVuSans-48"/>
       <use x="63.623047" xlink:href="#DejaVuSans-46"/>
       <use x="95.410156" xlink:href="#DejaVuSans-50"/>
      </g>
     </g>
    </g>
    <g id="ytick_2">
     <g id="line2d_9">
      <g>
       <use style="stroke:#000000;" x="67.481875" xlink:href="#m357748cffc" y="181.471293"/>
      </g>
     </g>
     <g id="text_10">
      <!-- 0.4 -->
      <g transform="translate(30.55625 188.309887)scale(0.18 -0.18)">
       <use xlink:href="#DejaVuSans-48"/>
       <use x="63.623047" xlink:href="#DejaVuSans-46"/>
       <use x="95.410156" xlink:href="#DejaVuSans-52"/>
      </g>
     </g>
    </g>
    <g id="ytick_3">
     <g id="line2d_10">
      <g>
       <use style="stroke:#000000;" x="67.481875" xlink:href="#m357748cffc" y="122.892707"/>
      </g>
     </g>
     <g id="text_11">
      <!-- 0.6 -->
      <g transform="translate(30.55625 129.731301)scale(0.18 -0.18)">
       <defs>
        <path d="M 33.015625 40.375 
Q 26.375 40.375 22.484375 35.828125 
Q 18.609375 31.296875 18.609375 23.390625 
Q 18.609375 15.53125 22.484375 10.953125 
Q 26.375 6.390625 33.015625 6.390625 
Q 39.65625 6.390625 43.53125 10.953125 
Q 47.40625 15.53125 47.40625 23.390625 
Q 47.40625 31.296875 43.53125 35.828125 
Q 39.65625 40.375 33.015625 40.375 
z
M 52.59375 71.296875 
L 52.59375 62.3125 
Q 48.875 64.0625 45.09375 64.984375 
Q 41.3125 65.921875 37.59375 65.921875 
Q 27.828125 65.921875 22.671875 59.328125 
Q 17.53125 52.734375 16.796875 39.40625 
Q 19.671875 43.65625 24.015625 45.921875 
Q 28.375 48.1875 33.59375 48.1875 
Q 44.578125 48.1875 50.953125 41.515625 
Q 57.328125 34.859375 57.328125 23.390625 
Q 57.328125 12.15625 50.6875 5.359375 
Q 44.046875 -1.421875 33.015625 -1.421875 
Q 20.359375 -1.421875 13.671875 8.265625 
Q 6.984375 17.96875 6.984375 36.375 
Q 6.984375 53.65625 15.1875 63.9375 
Q 23.390625 74.21875 37.203125 74.21875 
Q 40.921875 74.21875 44.703125 73.484375 
Q 48.484375 72.75 52.59375 71.296875 
z
" id="DejaVuSans-54"/>
       </defs>
       <use xlink:href="#DejaVuSans-48"/>
       <use x="63.623047" xlink:href="#DejaVuSans-46"/>
       <use x="95.410156" xlink:href="#DejaVuSans-54"/>
      </g>
     </g>
    </g>
    <g id="ytick_4">
     <g id="line2d_11">
      <g>
       <use style="stroke:#000000;" x="67.481875" xlink:href="#m357748cffc" y="64.314121"/>
      </g>
     </g>
     <g id="text_12">
      <!-- 0.8 -->
      <g transform="translate(30.55625 71.152715)scale(0.18 -0.18)">
       <defs>
        <path d="M 31.78125 34.625 
Q 24.75 34.625 20.71875 30.859375 
Q 16.703125 27.09375 16.703125 20.515625 
Q 16.703125 13.921875 20.71875 10.15625 
Q 24.75 6.390625 31.78125 6.390625 
Q 38.8125 6.390625 42.859375 10.171875 
Q 46.921875 13.96875 46.921875 20.515625 
Q 46.921875 27.09375 42.890625 30.859375 
Q 38.875 34.625 31.78125 34.625 
z
M 21.921875 38.8125 
Q 15.578125 40.375 12.03125 44.71875 
Q 8.5 49.078125 8.5 55.328125 
Q 8.5 64.0625 14.71875 69.140625 
Q 20.953125 74.21875 31.78125 74.21875 
Q 42.671875 74.21875 48.875 69.140625 
Q 55.078125 64.0625 55.078125 55.328125 
Q 55.078125 49.078125 51.53125 44.71875 
Q 48 40.375 41.703125 38.8125 
Q 48.828125 37.15625 52.796875 32.3125 
Q 56.78125 27.484375 56.78125 20.515625 
Q 56.78125 9.90625 50.3125 4.234375 
Q 43.84375 -1.421875 31.78125 -1.421875 
Q 19.734375 -1.421875 13.25 4.234375 
Q 6.78125 9.90625 6.78125 20.515625 
Q 6.78125 27.484375 10.78125 32.3125 
Q 14.796875 37.15625 21.921875 38.8125 
z
M 18.3125 54.390625 
Q 18.3125 48.734375 21.84375 45.5625 
Q 25.390625 42.390625 31.78125 42.390625 
Q 38.140625 42.390625 41.71875 45.5625 
Q 45.3125 48.734375 45.3125 54.390625 
Q 45.3125 60.0625 41.71875 63.234375 
Q 38.140625 66.40625 31.78125 66.40625 
Q 25.390625 66.40625 21.84375 63.234375 
Q 18.3125 60.0625 18.3125 54.390625 
z
" id="DejaVuSans-56"/>
       </defs>
       <use xlink:href="#DejaVuSans-48"/>
       <use x="63.623047" xlink:href="#DejaVuSans-46"/>
       <use x="95.410156" xlink:href="#DejaVuSans-56"/>
      </g>
     </g>
    </g>
    <g id="text_13">
     <!-- p(optimal choice) -->
     <g transform="translate(22.396875 239.708562)rotate(-90)scale(0.2 -0.2)">
      <defs>
       <path d="M 52 44.1875 
Q 55.375 50.25 60.0625 53.125 
Q 64.75 56 71.09375 56 
Q 79.640625 56 84.28125 50.015625 
Q 88.921875 44.046875 88.921875 33.015625 
L 88.921875 0 
L 79.890625 0 
L 79.890625 32.71875 
Q 79.890625 40.578125 77.09375 44.375 
Q 74.3125 48.1875 68.609375 48.1875 
Q 61.625 48.1875 57.5625 43.546875 
Q 53.515625 38.921875 53.515625 30.90625 
L 53.515625 0 
L 44.484375 0 
L 44.484375 32.71875 
Q 44.484375 40.625 41.703125 44.40625 
Q 38.921875 48.1875 33.109375 48.1875 
Q 26.21875 48.1875 22.15625 43.53125 
Q 18.109375 38.875 18.109375 30.90625 
L 18.109375 0 
L 9.078125 0 
L 9.078125 54.6875 
L 18.109375 54.6875 
L 18.109375 46.1875 
Q 21.1875 51.21875 25.484375 53.609375 
Q 29.78125 56 35.6875 56 
Q 41.65625 56 45.828125 52.96875 
Q 50 49.953125 52 44.1875 
z
" id="DejaVuSans-109"/>
      </defs>
      <use xlink:href="#DejaVuSans-112"/>
      <use x="63.476562" xlink:href="#DejaVuSans-40"/>
      <use x="102.490234" xlink:href="#DejaVuSans-111"/>
      <use x="163.671875" xlink:href="#DejaVuSans-112"/>
      <use x="227.148438" xlink:href="#DejaVuSans-116"/>
      <use x="266.357422" xlink:href="#DejaVuSans-105"/>
      <use x="294.140625" xlink:href="#DejaVuSans-109"/>
      <use x="391.552734" xlink:href="#DejaVuSans-97"/>
      <use x="452.832031" xlink:href="#DejaVuSans-108"/>
      <use x="480.615234" xlink:href="#DejaVuSans-32"/>
      <use x="512.402344" xlink:href="#DejaVuSans-99"/>
      <use x="567.382812" xlink:href="#DejaVuSans-104"/>
      <use x="630.761719" xlink:href="#DejaVuSans-111"/>
      <use x="691.943359" xlink:href="#DejaVuSans-105"/>
      <use x="719.726562" xlink:href="#DejaVuSans-99"/>
      <use x="774.707031" xlink:href="#DejaVuSans-101"/>
      <use x="836.230469" xlink:href="#DejaVuSans-41"/>
     </g>
    </g>
   </g>
   <g id="line2d_12">
    <path clip-path="url(#paa651e0bc0)" d="M 116.885754 149.720058 
L 119.064237 150.070622 
L 121.242721 150.421186 
L 123.421204 150.77175 
L 125.599688 151.122314 
L 127.778171 151.472878 
L 129.956654 151.823442 
L 132.135138 152.174006 
L 134.313621 152.52457 
L 136.492105 152.875134 
L 138.670588 153.225698 
L 140.849071 153.576262 
L 143.027555 153.926826 
L 145.206038 154.27739 
L 147.384522 154.627954 
L 149.563005 154.978518 
L 151.741488 155.329082 
L 153.919972 155.679646 
L 156.098455 156.03021 
L 158.276939 156.380774 
L 160.455422 156.731338 
L 162.633906 157.081901 
L 164.812389 157.432465 
L 166.990872 157.783029 
L 169.169356 158.133593 
L 171.347839 158.484157 
L 173.526323 158.834721 
L 175.704806 159.185285 
L 177.883289 159.535849 
L 180.061773 159.886413 
L 182.240256 160.236977 
L 184.41874 160.587541 
L 186.597223 160.938105 
L 188.775707 161.288669 
L 190.95419 161.639233 
L 193.132673 161.989797 
L 195.311157 162.340361 
L 197.48964 162.690925 
L 199.668124 163.041489 
L 201.846607 163.392053 
L 204.02509 163.742617 
L 206.203574 164.093181 
L 208.382057 164.443745 
L 210.560541 164.794309 
L 212.739024 165.144873 
L 214.917507 165.495437 
L 217.095991 165.846001 
L 219.274474 166.196565 
L 221.452958 166.547129 
L 223.631441 166.897693 
L 225.809925 167.248257 
L 227.988408 167.598821 
L 230.166891 167.949385 
L 232.345375 168.299949 
L 234.523858 168.650513 
L 236.702342 169.001076 
L 238.880825 169.35164 
L 241.059308 169.702204 
L 243.237792 170.052768 
L 245.416275 170.403332 
L 247.594759 170.753896 
L 249.773242 171.10446 
L 251.951726 171.455024 
L 254.130209 171.805588 
L 256.308692 172.156152 
L 258.487176 172.506716 
L 260.665659 172.85728 
L 262.844143 173.207844 
L 265.022626 173.558408 
L 267.201109 173.908972 
L 269.379593 174.259536 
L 271.558076 174.6101 
L 273.73656 174.960664 
L 275.915043 175.311228 
L 278.093526 175.661792 
L 280.27201 176.012356 
L 282.450493 176.36292 
L 284.628977 176.713484 
L 286.80746 177.064048 
L 288.985944 177.414612 
L 291.164427 177.765176 
L 293.34291 178.11574 
L 295.521394 178.466304 
L 297.699877 178.816868 
L 299.878361 179.167432 
L 302.056844 179.517996 
L 304.235327 179.86856 
L 306.413811 180.219124 
L 308.592294 180.569688 
L 310.770778 180.920251 
L 312.949261 181.270815 
L 315.127744 181.621379 
L 317.306228 181.971943 
L 319.484711 182.322507 
L 321.663195 182.673071 
L 323.841678 183.023635 
L 326.020162 183.374199 
L 328.198645 183.724763 
L 330.377128 184.075327 
L 332.555612 184.425891 
" style="fill:none;stroke:#117733;stroke-linecap:square;stroke-width:1.8;"/>
   </g>
   <g id="patch_3">
    <path d="M 67.481875 297.164 
L 67.481875 7.2 
" style="fill:none;stroke:#000000;stroke-linecap:square;stroke-linejoin:miter;"/>
   </g>
   <g id="patch_4">
    <path d="M 67.481875 297.164 
L 341.414625 297.164 
" style="fill:none;stroke:#000000;stroke-linecap:square;stroke-linejoin:miter;"/>
   </g>
   <g id="text_14">
    <!-- $r=0.18, p&lt;.001$ -->
    <g transform="translate(84.602672 37.953758)scale(0.16 -0.16)">
     <defs>
      <path d="M 44.578125 46.390625 
Q 43.21875 47.125 41.453125 47.515625 
Q 39.703125 47.90625 37.703125 47.90625 
Q 30.515625 47.90625 25.140625 42.453125 
Q 19.78125 37.015625 18.015625 27.875 
L 12.5 0 
L 3.515625 0 
L 14.203125 54.6875 
L 23.1875 54.6875 
L 21.484375 46.1875 
Q 25.046875 50.921875 30 53.453125 
Q 34.96875 56 40.578125 56 
Q 42.046875 56 43.453125 55.828125 
Q 44.875 55.671875 46.296875 55.28125 
z
" id="DejaVuSans-Oblique-114"/>
      <path d="M 10.59375 45.40625 
L 73.1875 45.40625 
L 73.1875 37.203125 
L 10.59375 37.203125 
z
M 10.59375 25.484375 
L 73.1875 25.484375 
L 73.1875 17.1875 
L 10.59375 17.1875 
z
" id="DejaVuSans-61"/>
      <path d="M 11.71875 12.40625 
L 22.015625 12.40625 
L 22.015625 4 
L 14.015625 -11.625 
L 7.71875 -11.625 
L 11.71875 4 
z
" id="DejaVuSans-44"/>
      <path d="M 49.609375 33.6875 
Q 49.609375 40.875 46.484375 44.671875 
Q 43.359375 48.484375 37.5 48.484375 
Q 33.5 48.484375 29.859375 46.4375 
Q 26.21875 44.390625 23.390625 40.484375 
Q 20.609375 36.625 18.9375 31.15625 
Q 17.28125 25.6875 17.28125 20.3125 
Q 17.28125 13.484375 20.40625 9.796875 
Q 23.53125 6.109375 29.296875 6.109375 
Q 33.546875 6.109375 37.1875 8.109375 
Q 40.828125 10.109375 43.40625 13.921875 
Q 46.1875 17.921875 47.890625 23.34375 
Q 49.609375 28.765625 49.609375 33.6875 
z
M 21.78125 46.390625 
Q 25.390625 51.125 30.296875 53.5625 
Q 35.203125 56 41.21875 56 
Q 49.609375 56 54.25 50.5 
Q 58.890625 45.015625 58.890625 35.109375 
Q 58.890625 27 56 19.65625 
Q 53.125 12.3125 47.703125 6.5 
Q 44.09375 2.640625 39.546875 0.609375 
Q 35.015625 -1.421875 29.984375 -1.421875 
Q 24.171875 -1.421875 20.21875 1 
Q 16.265625 3.421875 14.3125 8.203125 
L 8.6875 -20.796875 
L -0.296875 -20.796875 
L 14.40625 54.6875 
L 23.390625 54.6875 
z
" id="DejaVuSans-Oblique-112"/>
      <path d="M 73.1875 49.21875 
L 22.796875 31.296875 
L 73.1875 13.484375 
L 73.1875 4.59375 
L 10.59375 27.296875 
L 10.59375 35.40625 
L 73.1875 58.109375 
z
" id="DejaVuSans-60"/>
     </defs>
     <use transform="translate(0 0.78125)" xlink:href="#DejaVuSans-Oblique-114"/>
     <use transform="translate(60.595703 0.78125)" xlink:href="#DejaVuSans-61"/>
     <use transform="translate(163.867188 0.78125)" xlink:href="#DejaVuSans-48"/>
     <use transform="translate(227.490234 0.78125)" xlink:href="#DejaVuSans-46"/>
     <use transform="translate(259.277344 0.78125)" xlink:href="#DejaVuSans-49"/>
     <use transform="translate(322.900391 0.78125)" xlink:href="#DejaVuSans-56"/>
     <use transform="translate(386.523438 0.78125)" xlink:href="#DejaVuSans-44"/>
     <use transform="translate(437.792969 0.78125)" xlink:href="#DejaVuSans-Oblique-112"/>
     <use transform="translate(520.751953 0.78125)" xlink:href="#DejaVuSans-60"/>
     <use transform="translate(624.023438 0.78125)" xlink:href="#DejaVuSans-46"/>
     <use transform="translate(675.292969 0.78125)" xlink:href="#DejaVuSans-48"/>
     <use transform="translate(738.916016 0.78125)" xlink:href="#DejaVuSans-48"/>
     <use transform="translate(802.539062 0.78125)" xlink:href="#DejaVuSans-49"/>
    </g>
   </g>
   <g id="legend_1"/>
  </g>
 </g>
 <defs>
  <clipPath id="paa651e0bc0">
   <rect height="289.964" width="273.93275" x="67.481875" y="7.2"/>
  </clipPath>
 </defs>
</svg>
